<svg width="1546" height="54" viewBox="0 0 1546 54" fill="none" xmlns="http://www.w3.org/2000/svg">
<rect width="50.0608" height="54" transform="translate(50.0605 54) rotate(-180)" fill="#F4F4F4" style="fill:#F4F4F4;fill:color(display-p3 0.9569 0.9569 0.9569);fill-opacity:1;"/>
<path d="M35.06 48.0036L22.5609 37.6107L16.8496 32.7362L21.9429 28.5156L35.06 39.4337L35.06 48.0036Z" fill="#0451DD" style="fill:#0451DD;fill:color(display-p3 0.0157 0.3176 0.8667);fill-opacity:1;"/>
<path d="M35.058 14.4868L14.9937 31.1908L10 26.9603L35.058 5.99609L35.058 14.4868Z" fill="black" style="fill:black;fill-opacity:1;"/>
<rect x="825" y="0.300781" width="54" height="54" fill="#F4F4F4" style="fill:#F4F4F4;fill:color(display-p3 0.9569 0.9569 0.9569);fill-opacity:1;"/>
<path d="M843 23.549V31.1032C843 33.8721 845.745 35.8035 848.351 34.868L860.775 30.4082C861.81 30.0368 862.5 29.0559 862.5 27.9566C862.5 26.9401 861.909 26.0165 860.986 25.591L848.674 19.9163C846.024 18.6947 843 20.6307 843 23.549Z" stroke="#3112D5" style="stroke:#3112D5;stroke:color(display-p3 0.1922 0.0706 0.8353);stroke-opacity:1;" stroke-width="1.5"/>
<rect x="746" y="0.300781" width="54" height="54" fill="#F4F4F4" style="fill:#F4F4F4;fill:color(display-p3 0.9569 0.9569 0.9569);fill-opacity:1;"/>
<path d="M770.42 29.9023C768.96 30.5316 768 31.5957 768 32.8025C768 34.7355 770.462 36.3025 773.5 36.3025C776.538 36.3025 779 34.7355 779 32.8025C779 31.5957 778.04 30.5316 776.58 29.9023" stroke="#3112D5" style="stroke:#3112D5;stroke:color(display-p3 0.1922 0.0706 0.8353);stroke-opacity:1;" stroke-width="1.5" stroke-linecap="round" stroke-linejoin="round"/>
<path d="M775.622 24.3008C776.745 23.6528 777.5 22.44 777.5 21.0508C777.5 18.9797 775.821 17.3008 773.75 17.3008C771.679 17.3008 770 18.9797 770 21.0508C770 23.1218 771.679 24.8008 773.75 24.8008V32.8008" stroke="#3112D5" style="stroke:#3112D5;stroke:color(display-p3 0.1922 0.0706 0.8353);stroke-opacity:1;" stroke-width="1.5" stroke-linecap="round" stroke-linejoin="round"/>
<rect x="667" y="0.300781" width="54" height="54" fill="#0451DD" style="fill:#0451DD;fill:color(display-p3 0.0157 0.3176 0.8667);fill-opacity:1;"/>
<path d="M686.635 32.0593L690.414 28.2797C691.225 27.4694 692.549 27.5042 693.315 28.3559L696.648 32.0593M696.648 28.8972C698.229 28.3701 698.229 28.3701 701.392 32.0593" stroke="white" style="stroke:white;stroke-opacity:1;" stroke-width="1.5" stroke-linecap="round"/>
<circle cx="697.174" cy="23.0964" r="1.35811" stroke="white" style="stroke:white;stroke-opacity:1;" stroke-width="1.5"/>
<path d="M684 21.3008V32.2738C684 34.4829 685.791 36.2738 688 36.2738H699.5C701.709 36.2738 703.5 34.4829 703.5 32.2738V21.3008C703.5 19.0916 701.709 17.3008 699.5 17.3008H688C685.791 17.3008 684 19.0916 684 21.3008Z" stroke="white" style="stroke:white;stroke-opacity:1;" stroke-width="1.5"/>
<rect width="50.0608" height="54" transform="translate(1495.94)" fill="#F4F4F4" style="fill:#F4F4F4;fill:color(display-p3 0.9569 0.9569 0.9569);fill-opacity:1;"/>
<path d="M1510.94 48.0036L1523.44 37.6107L1529.15 32.7362L1524.06 28.5156L1510.94 39.4337L1510.94 48.0036Z" fill="#0451DD" style="fill:#0451DD;fill:color(display-p3 0.0157 0.3176 0.8667);fill-opacity:1;"/>
<path d="M1510.94 14.4868L1531.01 31.1908L1536 26.9603L1510.94 5.99609L1510.94 14.4868Z" fill="black" style="fill:black;fill-opacity:1;"/>
</svg>
