<svg width="13" height="13" viewBox="0 0 13 13" fill="none" xmlns="http://www.w3.org/2000/svg">
<path d="M4.59333 0.735052H6.93333V1.47172H4.59333V0.735052ZM10.79 11.1351C10.79 11.2217 10.7467 11.3084 10.66 11.3951C10.5733 11.4817 10.4867 11.5251 10.4 11.5251H8.84V12.2617H10.4C10.7178 12.2617 10.985 12.1534 11.2017 11.9367C11.4183 11.7201 11.5267 11.4528 11.5267 11.1351V9.57505H10.79V11.1351ZM10.4 0.735052H8.84V1.47172H10.4C10.4867 1.47172 10.5733 1.51505 10.66 1.60172C10.7467 1.68839 10.79 1.77505 10.79 1.86172V3.42172H11.5267V1.86172C11.5267 1.54394 11.4183 1.27672 11.2017 1.06005C10.985 0.843386 10.7178 0.735052 10.4 0.735052ZM0.736667 1.86172C0.736667 1.77505 0.78 1.68839 0.866667 1.60172C0.953333 1.51505 1.04 1.47172 1.12667 1.47172H2.68667V0.735052H1.12667C0.808889 0.735052 0.541667 0.843386 0.325 1.06005C0.108333 1.27672 0 1.54394 0 1.86172V3.42172H0.736667V1.86172ZM10.79 5.32839H11.5267V7.66839H10.79V5.32839ZM8.84 6.10839V3.81172C8.84 3.69616 8.80389 3.60227 8.73167 3.53005C8.65944 3.45783 8.56556 3.42172 8.45 3.42172H6.15333V4.20172H7.54L5.50333 6.23839C5.33 6.15172 5.15667 6.10839 4.98333 6.10839H1.12667C1.01111 6.10839 0.881111 6.13727 0.736667 6.19505V5.32839H0V11.1351C0 11.4528 0.108333 11.7201 0.325 11.9367C0.541667 12.1534 0.808889 12.2617 1.12667 12.2617H6.93333V11.5251H6.06667C6.12444 11.3806 6.15333 11.2506 6.15333 11.1351V7.27839C6.15333 7.10505 6.11 6.93172 6.02333 6.75839L8.06 4.72172V6.10839H8.84ZM1.12667 11.5251C1.04 11.5251 0.953333 11.4817 0.866667 11.3951C0.78 11.3084 0.736667 11.2217 0.736667 11.1351V7.27839C0.736667 7.16283 0.78 7.06894 0.866667 6.99672C0.953333 6.9245 1.04 6.88839 1.12667 6.88839H4.98333C5.09889 6.88839 5.19278 6.9245 5.265 6.99672C5.33722 7.06894 5.37333 7.16283 5.37333 7.27839V11.1351C5.37333 11.2217 5.33722 11.3084 5.265 11.3951C5.19278 11.4817 5.09889 11.5251 4.98333 11.5251H1.12667Z" fill="#06173D" style="fill:#06173D;fill:color(display-p3 0.0235 0.0902 0.2392);fill-opacity:1;"/>
<path d="M4.59333 0.735052H6.93333V1.47172H4.59333V0.735052ZM10.79 11.1351C10.79 11.2217 10.7467 11.3084 10.66 11.3951C10.5733 11.4817 10.4867 11.5251 10.4 11.5251H8.84V12.2617H10.4C10.7178 12.2617 10.985 12.1534 11.2017 11.9367C11.4183 11.7201 11.5267 11.4528 11.5267 11.1351V9.57505H10.79V11.1351ZM10.4 0.735052H8.84V1.47172H10.4C10.4867 1.47172 10.5733 1.51505 10.66 1.60172C10.7467 1.68839 10.79 1.77505 10.79 1.86172V3.42172H11.5267V1.86172C11.5267 1.54394 11.4183 1.27672 11.2017 1.06005C10.985 0.843386 10.7178 0.735052 10.4 0.735052ZM0.736667 1.86172C0.736667 1.77505 0.78 1.68839 0.866667 1.60172C0.953333 1.51505 1.04 1.47172 1.12667 1.47172H2.68667V0.735052H1.12667C0.808889 0.735052 0.541667 0.843386 0.325 1.06005C0.108333 1.27672 0 1.54394 0 1.86172V3.42172H0.736667V1.86172ZM10.79 5.32839H11.5267V7.66839H10.79V5.32839ZM8.84 6.10839V3.81172C8.84 3.69616 8.80389 3.60227 8.73167 3.53005C8.65944 3.45783 8.56556 3.42172 8.45 3.42172H6.15333V4.20172H7.54L5.50333 6.23839C5.33 6.15172 5.15667 6.10839 4.98333 6.10839H1.12667C1.01111 6.10839 0.881111 6.13727 0.736667 6.19505V5.32839H0V11.1351C0 11.4528 0.108333 11.7201 0.325 11.9367C0.541667 12.1534 0.808889 12.2617 1.12667 12.2617H6.93333V11.5251H6.06667C6.12444 11.3806 6.15333 11.2506 6.15333 11.1351V7.27839C6.15333 7.10505 6.11 6.93172 6.02333 6.75839L8.06 4.72172V6.10839H8.84ZM1.12667 11.5251C1.04 11.5251 0.953333 11.4817 0.866667 11.3951C0.78 11.3084 0.736667 11.2217 0.736667 11.1351V7.27839C0.736667 7.16283 0.78 7.06894 0.866667 6.99672C0.953333 6.9245 1.04 6.88839 1.12667 6.88839H4.98333C5.09889 6.88839 5.19278 6.9245 5.265 6.99672C5.33722 7.06894 5.37333 7.16283 5.37333 7.27839V11.1351C5.37333 11.2217 5.33722 11.3084 5.265 11.3951C5.19278 11.4817 5.09889 11.5251 4.98333 11.5251H1.12667Z" fill="black" fill-opacity="0.2" style="fill:black;fill-opacity:0.2;"/>
</svg>
