<svg width="13" height="13" viewBox="0 0 13 13" fill="none" xmlns="http://www.w3.org/2000/svg">
<path d="M11.2233 7.23734L11.1367 7.19401V3.42401C11.1367 2.90401 10.9489 2.44901 10.5733 2.05901C10.1978 1.66901 9.75 1.47401 9.23 1.47401H2.29667C1.77667 1.47401 1.32889 1.66901 0.953333 2.05901C0.577778 2.44901 0.39 2.90401 0.39 3.42401V7.19401L0.346667 7.23734C0.115556 7.46845 0 7.7429 0 8.06068V11.1373C0 11.224 0.0361111 11.3107 0.108333 11.3973C0.180556 11.484 0.274444 11.5273 0.39 11.5273H2.29667C2.44111 11.5273 2.54222 11.4696 2.6 11.354L3.29333 10.3573H8.27667L8.92667 11.354C8.98444 11.4696 9.08556 11.5273 9.23 11.5273H11.18C11.2667 11.5273 11.3461 11.484 11.4183 11.3973C11.4906 11.3107 11.5267 11.224 11.5267 11.1373V8.06068C11.5267 7.7429 11.4256 7.46845 11.2233 7.23734ZM2.29667 2.25401H9.23C9.54778 2.25401 9.82222 2.36957 10.0533 2.60068C10.2844 2.83179 10.4 3.10623 10.4 3.42401V5.72068C10.2267 5.48957 10.0028 5.30179 9.72833 5.15734C9.45389 5.0129 9.15778 4.95512 8.84 4.98401H2.68667C2.13778 4.95512 1.69 5.12845 1.34333 5.50401L1.12667 5.76401V3.42401C1.12667 3.10623 1.24222 2.83179 1.47333 2.60068C1.70444 2.36957 1.97889 2.25401 2.29667 2.25401ZM10.01 6.89068H1.51667C1.51667 6.5729 1.63222 6.29845 1.86333 6.06734C2.09444 5.83623 2.36889 5.72068 2.68667 5.72068H8.84C9.15778 5.72068 9.43222 5.83623 9.66333 6.06734C9.89444 6.29845 10.01 6.5729 10.01 6.89068ZM10.79 10.7473H9.44667L8.79667 9.75068C8.71 9.63512 8.59444 9.57734 8.45 9.57734H3.07667C2.93222 9.57734 2.81667 9.63512 2.73 9.75068L2.08 10.7473H0.736667V8.06068C0.736667 7.94512 0.78 7.85123 0.866667 7.77901C0.953333 7.70679 1.04 7.67068 1.12667 7.67068H10.4C10.4867 7.67068 10.5733 7.70679 10.66 7.77901C10.7467 7.85123 10.79 7.94512 10.79 8.06068V10.7473Z" fill="#06173D" style="fill:#06173D;fill:color(display-p3 0.0235 0.0902 0.2392);fill-opacity:1;"/>
<path d="M11.2233 7.23734L11.1367 7.19401V3.42401C11.1367 2.90401 10.9489 2.44901 10.5733 2.05901C10.1978 1.66901 9.75 1.47401 9.23 1.47401H2.29667C1.77667 1.47401 1.32889 1.66901 0.953333 2.05901C0.577778 2.44901 0.39 2.90401 0.39 3.42401V7.19401L0.346667 7.23734C0.115556 7.46845 0 7.7429 0 8.06068V11.1373C0 11.224 0.0361111 11.3107 0.108333 11.3973C0.180556 11.484 0.274444 11.5273 0.39 11.5273H2.29667C2.44111 11.5273 2.54222 11.4696 2.6 11.354L3.29333 10.3573H8.27667L8.92667 11.354C8.98444 11.4696 9.08556 11.5273 9.23 11.5273H11.18C11.2667 11.5273 11.3461 11.484 11.4183 11.3973C11.4906 11.3107 11.5267 11.224 11.5267 11.1373V8.06068C11.5267 7.7429 11.4256 7.46845 11.2233 7.23734ZM2.29667 2.25401H9.23C9.54778 2.25401 9.82222 2.36957 10.0533 2.60068C10.2844 2.83179 10.4 3.10623 10.4 3.42401V5.72068C10.2267 5.48957 10.0028 5.30179 9.72833 5.15734C9.45389 5.0129 9.15778 4.95512 8.84 4.98401H2.68667C2.13778 4.95512 1.69 5.12845 1.34333 5.50401L1.12667 5.76401V3.42401C1.12667 3.10623 1.24222 2.83179 1.47333 2.60068C1.70444 2.36957 1.97889 2.25401 2.29667 2.25401ZM10.01 6.89068H1.51667C1.51667 6.5729 1.63222 6.29845 1.86333 6.06734C2.09444 5.83623 2.36889 5.72068 2.68667 5.72068H8.84C9.15778 5.72068 9.43222 5.83623 9.66333 6.06734C9.89444 6.29845 10.01 6.5729 10.01 6.89068ZM10.79 10.7473H9.44667L8.79667 9.75068C8.71 9.63512 8.59444 9.57734 8.45 9.57734H3.07667C2.93222 9.57734 2.81667 9.63512 2.73 9.75068L2.08 10.7473H0.736667V8.06068C0.736667 7.94512 0.78 7.85123 0.866667 7.77901C0.953333 7.70679 1.04 7.67068 1.12667 7.67068H10.4C10.4867 7.67068 10.5733 7.70679 10.66 7.77901C10.7467 7.85123 10.79 7.94512 10.79 8.06068V10.7473Z" fill="black" fill-opacity="0.2" style="fill:black;fill-opacity:0.2;"/>
</svg>
