<svg width="14" height="13" viewBox="0 0 14 13" fill="none" xmlns="http://www.w3.org/2000/svg">
<path d="M12.6692 9.96992C12.6692 10.5564 12.4574 11.0614 12.0338 11.485C11.6103 11.9085 11.089 12.1203 10.4699 12.1203H3.53008C2.94361 12.1203 2.4386 11.9085 2.01504 11.485C1.59148 11.0614 1.3797 10.5564 1.3797 9.96992V3.03008C1.34712 2.41103 1.54261 1.88972 1.96617 1.46617C2.38972 1.04261 2.91103 0.830827 3.53008 0.830827H7.43985V0H3.53008C3.1391 0 2.75627 0.073308 2.38158 0.219925C2.00689 0.366542 1.67293 0.586466 1.3797 0.8797C1.08647 1.17293 0.866541 1.50689 0.719925 1.88158C0.573308 2.25627 0.5 2.6391 0.5 3.03008V9.96992C0.5 10.3609 0.573308 10.7437 0.719925 11.1184C0.866541 11.4931 1.08647 11.8271 1.3797 12.1203C1.67293 12.4135 2.00689 12.6335 2.38158 12.7801C2.75627 12.9267 3.1391 13 3.53008 13H10.4699C10.8609 13 11.2437 12.9267 11.6184 12.7801C11.9931 12.6335 12.3271 12.4135 12.6203 12.1203C12.9135 11.8271 13.1335 11.4931 13.2801 11.1184C13.4267 10.7437 13.5 10.3609 13.5 9.96992V6.06015H12.6692V9.96992ZM13.0602 0H9.15038V0.830827H12.0338L6.70677 6.20677L7.29323 6.79323L12.6692 1.46617V4.30075H13.5V0.43985C13.5 0.309524 13.4593 0.203634 13.3778 0.122181C13.2964 0.0407267 13.1905 0 13.0602 0Z" fill="#06173D" style="fill:#06173D;fill:color(display-p3 0.0235 0.0902 0.2392);fill-opacity:1;"/>
<path d="M12.6692 9.96992C12.6692 10.5564 12.4574 11.0614 12.0338 11.485C11.6103 11.9085 11.089 12.1203 10.4699 12.1203H3.53008C2.94361 12.1203 2.4386 11.9085 2.01504 11.485C1.59148 11.0614 1.3797 10.5564 1.3797 9.96992V3.03008C1.34712 2.41103 1.54261 1.88972 1.96617 1.46617C2.38972 1.04261 2.91103 0.830827 3.53008 0.830827H7.43985V0H3.53008C3.1391 0 2.75627 0.073308 2.38158 0.219925C2.00689 0.366542 1.67293 0.586466 1.3797 0.8797C1.08647 1.17293 0.866541 1.50689 0.719925 1.88158C0.573308 2.25627 0.5 2.6391 0.5 3.03008V9.96992C0.5 10.3609 0.573308 10.7437 0.719925 11.1184C0.866541 11.4931 1.08647 11.8271 1.3797 12.1203C1.67293 12.4135 2.00689 12.6335 2.38158 12.7801C2.75627 12.9267 3.1391 13 3.53008 13H10.4699C10.8609 13 11.2437 12.9267 11.6184 12.7801C11.9931 12.6335 12.3271 12.4135 12.6203 12.1203C12.9135 11.8271 13.1335 11.4931 13.2801 11.1184C13.4267 10.7437 13.5 10.3609 13.5 9.96992V6.06015H12.6692V9.96992ZM13.0602 0H9.15038V0.830827H12.0338L6.70677 6.20677L7.29323 6.79323L12.6692 1.46617V4.30075H13.5V0.43985C13.5 0.309524 13.4593 0.203634 13.3778 0.122181C13.2964 0.0407267 13.1905 0 13.0602 0Z" fill="black" fill-opacity="0.2" style="fill:black;fill-opacity:0.2;"/>
</svg>
