<svg width="14" height="15" viewBox="0 0 14 15" fill="none" xmlns="http://www.w3.org/2000/svg">
<g clip-path="url(#clip0_696_12804)">
<path d="M6.90625 13.8008C6.59514 13.8008 6.30736 13.7386 6.04292 13.6141C5.77847 13.4897 5.55292 13.303 5.36625 13.0541L1.02625 7.73411C0.497361 7.20523 0.155139 6.59078 -0.000416666 5.89078C-0.155972 5.19078 -0.117083 4.49856 0.11625 3.81411C0.349583 3.12967 0.74625 2.55411 1.30625 2.08745C1.86625 1.62078 2.50403 1.34078 3.21958 1.24745C3.93514 1.15411 4.62736 1.25523 5.29625 1.55078C5.96514 1.84634 6.50181 2.28967 6.90625 2.88078C7.03069 2.69411 7.18625 2.50745 7.37292 2.32078C7.87069 1.823 8.44625 1.48856 9.09958 1.31745C9.75292 1.14634 10.4062 1.14634 11.0596 1.31745C11.7129 1.48856 12.2885 1.81523 12.7863 2.29745C13.284 2.77967 13.6185 3.35523 13.7896 4.02411C13.9607 4.693 13.9607 5.35411 13.7896 6.00745C13.6185 6.66078 13.284 7.23634 12.7863 7.73411L8.44625 13.0541C8.25958 13.303 8.03403 13.4897 7.76958 13.6141C7.50514 13.7386 7.21736 13.8008 6.90625 13.8008ZM3.73292 2.13411C3.14181 2.13411 2.60514 2.29745 2.12292 2.62411C1.64069 2.95078 1.29069 3.38634 1.07292 3.93078C0.855139 4.47523 0.800694 5.02745 0.909583 5.58745C1.01847 6.14745 1.27514 6.64523 1.67958 7.08078L6.11292 12.4474C6.29958 12.6963 6.55625 12.8208 6.88292 12.8208C7.20958 12.8208 7.48181 12.6963 7.69958 12.4474L12.1329 7.08078C12.5374 6.64523 12.8018 6.13189 12.9263 5.54078C13.0507 4.94967 12.9885 4.38189 12.7396 3.83745C12.4907 3.293 12.1174 2.86523 11.6196 2.55411C11.1218 2.243 10.5696 2.09523 9.96292 2.11078C9.35625 2.12634 8.81958 2.313 8.35292 2.67078C7.88625 3.02856 7.54403 3.48745 7.32625 4.04745C7.29514 4.14078 7.24069 4.21856 7.16292 4.28078C7.08514 4.343 6.99958 4.37411 6.90625 4.37411C6.81292 4.37411 6.72736 4.343 6.64958 4.28078C6.57181 4.21856 6.51736 4.14078 6.48625 4.04745C6.26847 3.48745 5.91069 3.02856 5.41292 2.67078C4.91514 2.313 4.35514 2.13411 3.73292 2.13411Z" fill="#06173D" style="fill:#06173D;fill:color(display-p3 0.0235 0.0902 0.2392);fill-opacity:1;"/>
<path d="M6.90625 13.8008C6.59514 13.8008 6.30736 13.7386 6.04292 13.6141C5.77847 13.4897 5.55292 13.303 5.36625 13.0541L1.02625 7.73411C0.497361 7.20523 0.155139 6.59078 -0.000416666 5.89078C-0.155972 5.19078 -0.117083 4.49856 0.11625 3.81411C0.349583 3.12967 0.74625 2.55411 1.30625 2.08745C1.86625 1.62078 2.50403 1.34078 3.21958 1.24745C3.93514 1.15411 4.62736 1.25523 5.29625 1.55078C5.96514 1.84634 6.50181 2.28967 6.90625 2.88078C7.03069 2.69411 7.18625 2.50745 7.37292 2.32078C7.87069 1.823 8.44625 1.48856 9.09958 1.31745C9.75292 1.14634 10.4062 1.14634 11.0596 1.31745C11.7129 1.48856 12.2885 1.81523 12.7863 2.29745C13.284 2.77967 13.6185 3.35523 13.7896 4.02411C13.9607 4.693 13.9607 5.35411 13.7896 6.00745C13.6185 6.66078 13.284 7.23634 12.7863 7.73411L8.44625 13.0541C8.25958 13.303 8.03403 13.4897 7.76958 13.6141C7.50514 13.7386 7.21736 13.8008 6.90625 13.8008ZM3.73292 2.13411C3.14181 2.13411 2.60514 2.29745 2.12292 2.62411C1.64069 2.95078 1.29069 3.38634 1.07292 3.93078C0.855139 4.47523 0.800694 5.02745 0.909583 5.58745C1.01847 6.14745 1.27514 6.64523 1.67958 7.08078L6.11292 12.4474C6.29958 12.6963 6.55625 12.8208 6.88292 12.8208C7.20958 12.8208 7.48181 12.6963 7.69958 12.4474L12.1329 7.08078C12.5374 6.64523 12.8018 6.13189 12.9263 5.54078C13.0507 4.94967 12.9885 4.38189 12.7396 3.83745C12.4907 3.293 12.1174 2.86523 11.6196 2.55411C11.1218 2.243 10.5696 2.09523 9.96292 2.11078C9.35625 2.12634 8.81958 2.313 8.35292 2.67078C7.88625 3.02856 7.54403 3.48745 7.32625 4.04745C7.29514 4.14078 7.24069 4.21856 7.16292 4.28078C7.08514 4.343 6.99958 4.37411 6.90625 4.37411C6.81292 4.37411 6.72736 4.343 6.64958 4.28078C6.57181 4.21856 6.51736 4.14078 6.48625 4.04745C6.26847 3.48745 5.91069 3.02856 5.41292 2.67078C4.91514 2.313 4.35514 2.13411 3.73292 2.13411Z" fill="black" fill-opacity="0.2" style="fill:black;fill-opacity:0.2;"/>
</g>
<defs>
<clipPath id="clip0_696_12804">
<rect width="14" height="14" fill="white" style="fill:white;fill-opacity:1;" transform="matrix(1 0 0 -1 0 14.5)"/>
</clipPath>
</defs>
</svg>
