<svg width="13" height="14" viewBox="0 0 13 14" fill="none" xmlns="http://www.w3.org/2000/svg">
<g clip-path="url(#clip0_696_13284)">
<path d="M9.85714 13.0391H2.14286C1.57143 13.0391 1.07857 12.8457 0.664286 12.4591C0.25 12.0724 0.0428571 11.5991 0.0428571 11.0391L0 5.71906C0 5.2124 0.121429 4.7524 0.364286 4.33906C0.607143 3.92573 0.957143 3.58573 1.41429 3.31906L4.84286 1.31906C5.18571 1.1324 5.56429 1.03906 5.97857 1.03906C6.39286 1.03906 6.77143 1.1324 7.11429 1.31906L10.5429 3.31906C11 3.55906 11.35 3.8924 11.5929 4.31906C11.8357 4.74573 11.9571 5.2124 11.9571 5.71906L12 11.0391C12 11.5991 11.7929 12.0724 11.3786 12.4591C10.9643 12.8457 10.4571 13.0391 9.85714 13.0391ZM6 1.83906C5.74286 1.83906 5.51429 1.8924 5.31429 1.99906L1.84286 3.99906C1.52857 4.18573 1.28571 4.4324 1.11429 4.73906C0.942857 5.04573 0.857143 5.3724 0.857143 5.71906V11.0391C0.857143 11.3591 0.985714 11.6391 1.24286 11.8791C1.5 12.1191 1.8 12.2391 2.14286 12.2391H9.85714C10.2286 12.2391 10.5357 12.1191 10.7786 11.8791C11.0214 11.6391 11.1429 11.3591 11.1429 11.0391V5.71906C11.1429 5.34573 11.05 5.0124 10.8643 4.71906C10.6786 4.42573 10.4286 4.18573 10.1143 3.99906L6.64286 1.99906C6.44286 1.8924 6.22857 1.83906 6 1.83906ZM7.71429 10.6391H4.28571C4.17143 10.6391 4.07857 10.5991 4.00714 10.5191C3.93571 10.4391 3.9 10.3457 3.9 10.2391C3.9 10.1324 3.93571 10.0391 4.00714 9.95906C4.07857 9.87906 4.17143 9.83906 4.28571 9.83906H7.71429C7.88571 9.8124 8.02143 9.8724 8.12143 10.0191C8.22143 10.1657 8.22143 10.3124 8.12143 10.4591C8.02143 10.6057 7.88571 10.6657 7.71429 10.6391Z" fill="#06173D" style="fill:#06173D;fill:color(display-p3 0.0235 0.0902 0.2392);fill-opacity:1;"/>
<path d="M9.85714 13.0391H2.14286C1.57143 13.0391 1.07857 12.8457 0.664286 12.4591C0.25 12.0724 0.0428571 11.5991 0.0428571 11.0391L0 5.71906C0 5.2124 0.121429 4.7524 0.364286 4.33906C0.607143 3.92573 0.957143 3.58573 1.41429 3.31906L4.84286 1.31906C5.18571 1.1324 5.56429 1.03906 5.97857 1.03906C6.39286 1.03906 6.77143 1.1324 7.11429 1.31906L10.5429 3.31906C11 3.55906 11.35 3.8924 11.5929 4.31906C11.8357 4.74573 11.9571 5.2124 11.9571 5.71906L12 11.0391C12 11.5991 11.7929 12.0724 11.3786 12.4591C10.9643 12.8457 10.4571 13.0391 9.85714 13.0391ZM6 1.83906C5.74286 1.83906 5.51429 1.8924 5.31429 1.99906L1.84286 3.99906C1.52857 4.18573 1.28571 4.4324 1.11429 4.73906C0.942857 5.04573 0.857143 5.3724 0.857143 5.71906V11.0391C0.857143 11.3591 0.985714 11.6391 1.24286 11.8791C1.5 12.1191 1.8 12.2391 2.14286 12.2391H9.85714C10.2286 12.2391 10.5357 12.1191 10.7786 11.8791C11.0214 11.6391 11.1429 11.3591 11.1429 11.0391V5.71906C11.1429 5.34573 11.05 5.0124 10.8643 4.71906C10.6786 4.42573 10.4286 4.18573 10.1143 3.99906L6.64286 1.99906C6.44286 1.8924 6.22857 1.83906 6 1.83906ZM7.71429 10.6391H4.28571C4.17143 10.6391 4.07857 10.5991 4.00714 10.5191C3.93571 10.4391 3.9 10.3457 3.9 10.2391C3.9 10.1324 3.93571 10.0391 4.00714 9.95906C4.07857 9.87906 4.17143 9.83906 4.28571 9.83906H7.71429C7.88571 9.8124 8.02143 9.8724 8.12143 10.0191C8.22143 10.1657 8.22143 10.3124 8.12143 10.4591C8.02143 10.6057 7.88571 10.6657 7.71429 10.6391Z" fill="black" fill-opacity="0.2" style="fill:black;fill-opacity:0.2;"/>
</g>
<defs>
<clipPath id="clip0_696_13284">
<rect width="13" height="13" fill="white" style="fill:white;fill-opacity:1;" transform="matrix(1 0 0 -1 0 13.5391)"/>
</clipPath>
</defs>
</svg>
