<svg width="13" height="14" viewBox="0 0 13 14" fill="none" xmlns="http://www.w3.org/2000/svg">
<path d="M11.2233 7.66703L11.1367 7.6237V3.8537C11.1367 3.3337 10.9489 2.8787 10.5733 2.4887C10.1978 2.0987 9.75 1.9037 9.23 1.9037H2.29667C1.77667 1.9037 1.32889 2.0987 0.953333 2.4887C0.577778 2.8787 0.39 3.3337 0.39 3.8537V7.6237L0.346667 7.66703C0.115556 7.89814 0 8.17259 0 8.49036V11.567C0 11.6537 0.0361111 11.7404 0.108333 11.827C0.180556 11.9137 0.274444 11.957 0.39 11.957H2.29667C2.44111 11.957 2.54222 11.8993 2.6 11.7837L3.29333 10.787H8.27667L8.92667 11.7837C8.98444 11.8993 9.08556 11.957 9.23 11.957H11.18C11.2667 11.957 11.3461 11.9137 11.4183 11.827C11.4906 11.7404 11.5267 11.6537 11.5267 11.567V8.49036C11.5267 8.17259 11.4256 7.89814 11.2233 7.66703ZM2.29667 2.6837H9.23C9.54778 2.6837 9.82222 2.79925 10.0533 3.03036C10.2844 3.26148 10.4 3.53592 10.4 3.8537V6.15036C10.2267 5.91925 10.0028 5.73148 9.72833 5.58703C9.45389 5.44259 9.15778 5.38481 8.84 5.4137H2.68667C2.13778 5.38481 1.69 5.55814 1.34333 5.9337L1.12667 6.1937V3.8537C1.12667 3.53592 1.24222 3.26148 1.47333 3.03036C1.70444 2.79925 1.97889 2.6837 2.29667 2.6837ZM10.01 7.32036H1.51667C1.51667 7.00259 1.63222 6.72814 1.86333 6.49703C2.09444 6.26592 2.36889 6.15036 2.68667 6.15036H8.84C9.15778 6.15036 9.43222 6.26592 9.66333 6.49703C9.89444 6.72814 10.01 7.00259 10.01 7.32036ZM10.79 11.177H9.44667L8.79667 10.1804C8.71 10.0648 8.59444 10.007 8.45 10.007H3.07667C2.93222 10.007 2.81667 10.0648 2.73 10.1804L2.08 11.177H0.736667V8.49036C0.736667 8.37481 0.78 8.28092 0.866667 8.2087C0.953333 8.13648 1.04 8.10036 1.12667 8.10036H10.4C10.4867 8.10036 10.5733 8.13648 10.66 8.2087C10.7467 8.28092 10.79 8.37481 10.79 8.49036V11.177Z" fill="#06173D" style="fill:#06173D;fill:color(display-p3 0.0235 0.0902 0.2392);fill-opacity:1;"/>
<path d="M11.2233 7.66703L11.1367 7.6237V3.8537C11.1367 3.3337 10.9489 2.8787 10.5733 2.4887C10.1978 2.0987 9.75 1.9037 9.23 1.9037H2.29667C1.77667 1.9037 1.32889 2.0987 0.953333 2.4887C0.577778 2.8787 0.39 3.3337 0.39 3.8537V7.6237L0.346667 7.66703C0.115556 7.89814 0 8.17259 0 8.49036V11.567C0 11.6537 0.0361111 11.7404 0.108333 11.827C0.180556 11.9137 0.274444 11.957 0.39 11.957H2.29667C2.44111 11.957 2.54222 11.8993 2.6 11.7837L3.29333 10.787H8.27667L8.92667 11.7837C8.98444 11.8993 9.08556 11.957 9.23 11.957H11.18C11.2667 11.957 11.3461 11.9137 11.4183 11.827C11.4906 11.7404 11.5267 11.6537 11.5267 11.567V8.49036C11.5267 8.17259 11.4256 7.89814 11.2233 7.66703ZM2.29667 2.6837H9.23C9.54778 2.6837 9.82222 2.79925 10.0533 3.03036C10.2844 3.26148 10.4 3.53592 10.4 3.8537V6.15036C10.2267 5.91925 10.0028 5.73148 9.72833 5.58703C9.45389 5.44259 9.15778 5.38481 8.84 5.4137H2.68667C2.13778 5.38481 1.69 5.55814 1.34333 5.9337L1.12667 6.1937V3.8537C1.12667 3.53592 1.24222 3.26148 1.47333 3.03036C1.70444 2.79925 1.97889 2.6837 2.29667 2.6837ZM10.01 7.32036H1.51667C1.51667 7.00259 1.63222 6.72814 1.86333 6.49703C2.09444 6.26592 2.36889 6.15036 2.68667 6.15036H8.84C9.15778 6.15036 9.43222 6.26592 9.66333 6.49703C9.89444 6.72814 10.01 7.00259 10.01 7.32036ZM10.79 11.177H9.44667L8.79667 10.1804C8.71 10.0648 8.59444 10.007 8.45 10.007H3.07667C2.93222 10.007 2.81667 10.0648 2.73 10.1804L2.08 11.177H0.736667V8.49036C0.736667 8.37481 0.78 8.28092 0.866667 8.2087C0.953333 8.13648 1.04 8.10036 1.12667 8.10036H10.4C10.4867 8.10036 10.5733 8.13648 10.66 8.2087C10.7467 8.28092 10.79 8.37481 10.79 8.49036V11.177Z" fill="black" fill-opacity="0.2" style="fill:black;fill-opacity:0.2;"/>
</svg>
