<svg width="14" height="15" viewBox="0 0 14 15" fill="none" xmlns="http://www.w3.org/2000/svg">
<path d="M13.4298 2.36499C13.7735 2.72673 13.9453 3.13368 13.9453 3.58585C13.9453 4.0561 13.7735 4.4721 13.4298 4.83383L4.72107 13.5426C4.48594 13.7777 4.21464 13.9315 3.90717 14.0038C3.54543 14.0762 3.10231 14.1756 2.57779 14.3022C2.07136 14.4108 1.61015 14.5102 1.19415 14.6007C0.796244 14.673 0.588247 14.7182 0.57016 14.7363C0.552073 14.7363 0.524943 14.7363 0.48877 14.7363C0.344076 14.7363 0.235555 14.6821 0.163208 14.5735C0.0727743 14.465 0.0366007 14.3475 0.0546875 14.2209L0.814331 10.8839C0.886678 10.5583 1.04042 10.2779 1.27554 10.0428L9.95718 1.36118C10.3189 1.01753 10.7349 0.845703 11.2052 0.845703C11.6573 0.845703 12.0643 1.01753 12.426 1.36118L13.4298 2.36499ZM4.12421 12.9186L10.8525 6.19034L8.60068 3.93854L1.89954 10.6397C1.77293 10.7663 1.69154 10.911 1.65536 11.0738L1.0585 13.7325C1.45641 13.6421 1.90858 13.5426 2.41501 13.4341C2.92144 13.3256 3.35552 13.2351 3.71725 13.1628C3.86195 13.1266 3.9976 13.0452 4.12421 12.9186ZM12.833 4.20984C12.9958 4.02897 13.0771 3.82097 13.0771 3.58585C13.0771 3.3688 12.9958 3.16985 12.833 2.98898L11.802 1.95804C11.6393 1.79526 11.4403 1.71387 11.2052 1.71387C10.952 1.71387 10.744 1.79526 10.5812 1.95804L9.22467 3.31454L11.4765 5.56635L12.833 4.20984Z" fill="#181A20" style="fill:#181A20;fill:color(display-p3 0.0941 0.1020 0.1255);fill-opacity:1;"/>
</svg>
