<svg width="10" height="15" viewBox="0 0 10 15" fill="none" xmlns="http://www.w3.org/2000/svg">
<path d="M2.78282 9.78516C1.70705 10.2487 1 11.0326 1 11.9217C1 13.3457 2.81403 14.5001 5.05176 14.5001C7.28948 14.5001 9.10352 13.3457 9.10352 11.9217C9.10352 11.0326 8.39647 10.2487 7.32069 9.78516" stroke="#06173D" style="stroke:#06173D;stroke:color(display-p3 0.0235 0.0902 0.2392);stroke-opacity:1;" stroke-linecap="round" stroke-linejoin="round"/>
<path d="M2.78282 9.78516C1.70705 10.2487 1 11.0326 1 11.9217C1 13.3457 2.81403 14.5001 5.05176 14.5001C7.28948 14.5001 9.10352 13.3457 9.10352 11.9217C9.10352 11.0326 8.39647 10.2487 7.32069 9.78516" stroke="black" stroke-opacity="0.2" style="stroke:black;stroke-opacity:0.2;" stroke-linecap="round" stroke-linejoin="round"/>
<path d="M6.61435 5.65678C7.44127 5.17943 7.99778 4.28599 7.99778 3.26256C7.99778 1.73684 6.76094 0.5 5.23522 0.5C3.7095 0.5 2.47266 1.73684 2.47266 3.26256C2.47266 4.78828 3.7095 6.02512 5.23522 6.02512V11.9186" stroke="#06173D" style="stroke:#06173D;stroke:color(display-p3 0.0235 0.0902 0.2392);stroke-opacity:1;" stroke-linecap="round" stroke-linejoin="round"/>
<path d="M6.61435 5.65678C7.44127 5.17943 7.99778 4.28599 7.99778 3.26256C7.99778 1.73684 6.76094 0.5 5.23522 0.5C3.7095 0.5 2.47266 1.73684 2.47266 3.26256C2.47266 4.78828 3.7095 6.02512 5.23522 6.02512V11.9186" stroke="black" stroke-opacity="0.2" style="stroke:black;stroke-opacity:0.2;" stroke-linecap="round" stroke-linejoin="round"/>
</svg>
