<svg width="13" height="13" viewBox="0 0 13 13" fill="none" xmlns="http://www.w3.org/2000/svg">
<path d="M8.84 0.735052H5.37333C4.88222 0.735052 4.43444 0.850608 4.03 1.08172C3.62556 1.31283 3.30056 1.63783 3.055 2.05672C2.80944 2.47561 2.68667 2.93061 2.68667 3.42172H1.90667C1.38667 3.42172 0.938889 3.6095 0.563333 3.98505C0.187778 4.36061 0 4.80839 0 5.32839V6.49839C0 6.61394 0.0361111 6.70783 0.108333 6.78005C0.180556 6.85227 0.274444 6.88839 0.39 6.88839H5.76333C5.87889 6.88839 5.97278 6.85227 6.045 6.78005C6.11722 6.70783 6.15333 6.61394 6.15333 6.49839V5.32839C6.15333 4.80839 5.96556 4.36061 5.59 3.98505C5.21444 3.6095 4.76667 3.42172 4.24667 3.42172H3.46667C3.46667 2.90172 3.65444 2.45394 4.03 2.07839C4.40556 1.70283 4.85333 1.50061 5.37333 1.47172H8.84C9.36 1.50061 9.80778 1.70283 10.1833 2.07839C10.5589 2.45394 10.7611 2.90172 10.79 3.42172V11.8717H11.5267V3.42172C11.5267 2.93061 11.4111 2.47561 11.18 2.05672C10.9489 1.63783 10.6239 1.31283 10.205 1.08172C9.78611 0.850608 9.33111 0.735052 8.84 0.735052ZM4.20333 4.20172C4.52111 4.20172 4.79556 4.31005 5.02667 4.52672C5.25778 4.74339 5.37333 5.01061 5.37333 5.32839V6.10839H0.736667V5.32839C0.736667 5.01061 0.852222 4.74339 1.08333 4.52672C1.31444 4.31005 1.58889 4.20172 1.90667 4.20172H4.20333ZM0.39 8.05839H1.12667V10.7451H0.39V8.05839ZM1.90667 8.05839H2.68667V9.18505H1.90667V8.05839ZM1.90667 10.3551H2.68667V11.8717H1.90667V10.3551ZM3.46667 8.05839H4.20333V9.96505H3.46667V8.05839ZM3.46667 10.7451H4.20333V11.4817H3.46667V10.7451ZM4.98333 8.05839H5.76333V9.18505H4.98333V8.05839ZM4.98333 9.96505H5.76333V12.2617H4.98333V9.96505Z" fill="#06173D" style="fill:#06173D;fill:color(display-p3 0.0235 0.0902 0.2392);fill-opacity:1;"/>
<path d="M8.84 0.735052H5.37333C4.88222 0.735052 4.43444 0.850608 4.03 1.08172C3.62556 1.31283 3.30056 1.63783 3.055 2.05672C2.80944 2.47561 2.68667 2.93061 2.68667 3.42172H1.90667C1.38667 3.42172 0.938889 3.6095 0.563333 3.98505C0.187778 4.36061 0 4.80839 0 5.32839V6.49839C0 6.61394 0.0361111 6.70783 0.108333 6.78005C0.180556 6.85227 0.274444 6.88839 0.39 6.88839H5.76333C5.87889 6.88839 5.97278 6.85227 6.045 6.78005C6.11722 6.70783 6.15333 6.61394 6.15333 6.49839V5.32839C6.15333 4.80839 5.96556 4.36061 5.59 3.98505C5.21444 3.6095 4.76667 3.42172 4.24667 3.42172H3.46667C3.46667 2.90172 3.65444 2.45394 4.03 2.07839C4.40556 1.70283 4.85333 1.50061 5.37333 1.47172H8.84C9.36 1.50061 9.80778 1.70283 10.1833 2.07839C10.5589 2.45394 10.7611 2.90172 10.79 3.42172V11.8717H11.5267V3.42172C11.5267 2.93061 11.4111 2.47561 11.18 2.05672C10.9489 1.63783 10.6239 1.31283 10.205 1.08172C9.78611 0.850608 9.33111 0.735052 8.84 0.735052ZM4.20333 4.20172C4.52111 4.20172 4.79556 4.31005 5.02667 4.52672C5.25778 4.74339 5.37333 5.01061 5.37333 5.32839V6.10839H0.736667V5.32839C0.736667 5.01061 0.852222 4.74339 1.08333 4.52672C1.31444 4.31005 1.58889 4.20172 1.90667 4.20172H4.20333ZM0.39 8.05839H1.12667V10.7451H0.39V8.05839ZM1.90667 8.05839H2.68667V9.18505H1.90667V8.05839ZM1.90667 10.3551H2.68667V11.8717H1.90667V10.3551ZM3.46667 8.05839H4.20333V9.96505H3.46667V8.05839ZM3.46667 10.7451H4.20333V11.4817H3.46667V10.7451ZM4.98333 8.05839H5.76333V9.18505H4.98333V8.05839ZM4.98333 9.96505H5.76333V12.2617H4.98333V9.96505Z" fill="black" fill-opacity="0.2" style="fill:black;fill-opacity:0.2;"/>
</svg>
