<svg width="15" height="15" viewBox="0 0 15 15" fill="none" xmlns="http://www.w3.org/2000/svg">
<path d="M12.95 4.79844C12.6833 4.53177 12.3667 4.39844 12 4.39844H9.75V2.14844C9.75 1.78177 9.625 1.47344 9.375 1.22344C9.125 0.973438 8.81667 0.848438 8.45 0.848438H1.3C0.933333 0.848438 0.625 0.973438 0.375 1.22344C0.125 1.47344 0 1.78177 0 2.14844V9.29844C0 9.6651 0.125 9.97344 0.375 10.2234C0.625 10.4734 0.933333 10.5984 1.3 10.5984H3.55V12.8484C3.55 13.2151 3.675 13.5234 3.925 13.7734C4.175 14.0234 4.48333 14.1484 4.85 14.1484H12C12.3667 14.1484 12.675 14.0234 12.925 13.7734C13.175 13.5234 13.3 13.2151 13.3 12.8484V5.69844C13.3 5.33177 13.1833 5.03177 12.95 4.79844ZM1.3 9.69844C1.2 9.69844 1.10833 9.65677 1.025 9.57344C0.941667 9.4901 0.9 9.38177 0.9 9.24844V2.14844C0.9 2.04844 0.941667 1.94844 1.025 1.84844C1.10833 1.74844 1.2 1.69844 1.3 1.69844H8.45C8.55 1.69844 8.64167 1.74844 8.725 1.84844C8.80833 1.94844 8.85 2.04844 8.85 2.14844V4.39844H4.9C4.5 4.39844 4.175 4.52344 3.925 4.77344C3.675 5.02344 3.55 5.33177 3.55 5.69844V9.69844H1.3ZM12.45 12.8484C12.45 12.9484 12.4 13.0401 12.3 13.1234C12.2 13.2068 12.1 13.2651 12 13.2984H4.9C4.76667 13.2651 4.65833 13.2068 4.575 13.1234C4.49167 13.0401 4.45 12.9484 4.45 12.8484V5.69844C4.45 5.59844 4.49167 5.50677 4.575 5.42344C4.65833 5.34011 4.76667 5.29844 4.9 5.29844H12C12.1 5.29844 12.2 5.34011 12.3 5.42344C12.4 5.50677 12.45 5.6151 12.45 5.74844V12.8484ZM8.85 7.49844H8V8.84844H6.65V9.69844H8V11.0484H8.85V9.69844H10.2V8.84844H8.85V7.49844Z" fill="#06173D" style="fill:#06173D;fill:color(display-p3 0.0235 0.0902 0.2392);fill-opacity:1;"/>
<path d="M12.95 4.79844C12.6833 4.53177 12.3667 4.39844 12 4.39844H9.75V2.14844C9.75 1.78177 9.625 1.47344 9.375 1.22344C9.125 0.973438 8.81667 0.848438 8.45 0.848438H1.3C0.933333 0.848438 0.625 0.973438 0.375 1.22344C0.125 1.47344 0 1.78177 0 2.14844V9.29844C0 9.6651 0.125 9.97344 0.375 10.2234C0.625 10.4734 0.933333 10.5984 1.3 10.5984H3.55V12.8484C3.55 13.2151 3.675 13.5234 3.925 13.7734C4.175 14.0234 4.48333 14.1484 4.85 14.1484H12C12.3667 14.1484 12.675 14.0234 12.925 13.7734C13.175 13.5234 13.3 13.2151 13.3 12.8484V5.69844C13.3 5.33177 13.1833 5.03177 12.95 4.79844ZM1.3 9.69844C1.2 9.69844 1.10833 9.65677 1.025 9.57344C0.941667 9.4901 0.9 9.38177 0.9 9.24844V2.14844C0.9 2.04844 0.941667 1.94844 1.025 1.84844C1.10833 1.74844 1.2 1.69844 1.3 1.69844H8.45C8.55 1.69844 8.64167 1.74844 8.725 1.84844C8.80833 1.94844 8.85 2.04844 8.85 2.14844V4.39844H4.9C4.5 4.39844 4.175 4.52344 3.925 4.77344C3.675 5.02344 3.55 5.33177 3.55 5.69844V9.69844H1.3ZM12.45 12.8484C12.45 12.9484 12.4 13.0401 12.3 13.1234C12.2 13.2068 12.1 13.2651 12 13.2984H4.9C4.76667 13.2651 4.65833 13.2068 4.575 13.1234C4.49167 13.0401 4.45 12.9484 4.45 12.8484V5.69844C4.45 5.59844 4.49167 5.50677 4.575 5.42344C4.65833 5.34011 4.76667 5.29844 4.9 5.29844H12C12.1 5.29844 12.2 5.34011 12.3 5.42344C12.4 5.50677 12.45 5.6151 12.45 5.74844V12.8484ZM8.85 7.49844H8V8.84844H6.65V9.69844H8V11.0484H8.85V9.69844H10.2V8.84844H8.85V7.49844Z" fill="black" fill-opacity="0.2" style="fill:black;fill-opacity:0.2;"/>
</svg>
