<svg width="14" height="15" viewBox="0 0 14 15" fill="none" xmlns="http://www.w3.org/2000/svg">
<g clip-path="url(#clip0_446_55064)">
<path d="M12.5533 2.36667H9.28667V1.9C9.28667 1.52667 9.14667 1.2 8.86667 0.92C8.58667 0.64 8.26 0.5 7.88667 0.5H5.08667C4.71333 0.5 4.38667 0.64 4.10667 0.92C3.82667 1.2 3.68667 1.52667 3.68667 1.9V2.36667H0.42C0.295556 2.36667 0.194444 2.41333 0.116667 2.50667C0.0388889 2.6 0 2.70889 0 2.83333C0 2.95778 0.0388889 3.06667 0.116667 3.16C0.194444 3.25333 0.295556 3.3 0.42 3.3H12.5533C12.6778 3.3 12.7789 3.25333 12.8567 3.16C12.9344 3.06667 12.9733 2.95778 12.9733 2.83333C12.9733 2.70889 12.9344 2.6 12.8567 2.50667C12.7789 2.41333 12.6778 2.36667 12.5533 2.36667ZM4.62 1.9C4.62 1.77556 4.66667 1.66667 4.76 1.57333C4.85333 1.48 4.96222 1.43333 5.08667 1.43333H7.88667C8.01111 1.43333 8.12 1.48 8.21333 1.57333C8.30667 1.66667 8.35333 1.77556 8.35333 1.9V2.36667H4.62V1.9ZM11.2 4.23333C11.0444 4.23333 10.92 4.27222 10.8267 4.35C10.7333 4.42778 10.6867 4.52889 10.6867 4.65333L10.3133 12.2133C10.2822 12.5867 10.1344 12.8978 9.87 13.1467C9.60556 13.3956 9.28667 13.52 8.91333 13.52H4.06C3.68667 13.52 3.36778 13.3956 3.10333 13.1467C2.83889 12.8978 2.69111 12.5867 2.66 12.2133L2.28667 4.7C2.28667 4.48222 2.20111 4.32667 2.03 4.23333C1.85889 4.14 1.69556 4.14778 1.54 4.25667C1.38444 4.36556 1.32222 4.52889 1.35333 4.74667L1.72667 12.3067C1.75778 12.9289 1.99889 13.45 2.45 13.87C2.90111 14.29 3.43778 14.5 4.06 14.5H8.91333C9.53556 14.5 10.0722 14.2822 10.5233 13.8467C10.9744 13.4111 11.2156 12.8822 11.2467 12.26L11.62 4.7C11.62 4.57556 11.5811 4.46667 11.5033 4.37333C11.4256 4.28 11.3089 4.23333 11.1533 4.23333H11.2ZM6.95333 10.7667V6.1C6.95333 5.97556 6.90667 5.87444 6.81333 5.79667C6.72 5.71889 6.61111 5.68 6.48667 5.68C6.36222 5.68 6.25333 5.71889 6.16 5.79667C6.06667 5.87444 6.02 5.97556 6.02 6.1V10.7667C6.02 10.8911 6.06667 10.9922 6.16 11.07C6.25333 11.1478 6.36222 11.1867 6.48667 11.1867C6.61111 11.1867 6.72 11.1478 6.81333 11.07C6.90667 10.9922 6.95333 10.8911 6.95333 10.7667ZM8.82 9.83333V7.03333C8.82 6.90889 8.77333 6.80778 8.68 6.73C8.58667 6.65222 8.47778 6.61333 8.35333 6.61333C8.22889 6.61333 8.12 6.65222 8.02667 6.73C7.93333 6.80778 7.88667 6.90889 7.88667 7.03333V9.83333C7.85556 10.02 7.92556 10.1678 8.09667 10.2767C8.26778 10.3856 8.43889 10.3856 8.61 10.2767C8.78111 10.1678 8.85111 10.02 8.82 9.83333ZM5.08667 9.83333V7.03333C5.08667 6.90889 5.04 6.80778 4.94667 6.73C4.85333 6.65222 4.74444 6.61333 4.62 6.61333C4.49556 6.61333 4.38667 6.65222 4.29333 6.73C4.2 6.80778 4.15333 6.90889 4.15333 7.03333V9.83333C4.12222 10.02 4.19222 10.1678 4.36333 10.2767C4.53444 10.3856 4.70556 10.3856 4.87667 10.2767C5.04778 10.1678 5.11778 10.02 5.08667 9.83333Z" fill="#181A20" style="fill:#181A20;fill:color(display-p3 0.0941 0.1020 0.1255);fill-opacity:1;"/>
</g>
<defs>
<clipPath id="clip0_446_55064">
<rect width="14" height="14" fill="white" style="fill:white;fill-opacity:1;" transform="matrix(1 0 0 -1 0 14.5)"/>
</clipPath>
</defs>
</svg>
