<svg width="138" height="45" viewBox="0 0 138 45" fill="none" xmlns="http://www.w3.org/2000/svg">
<g id="header-logo.svg" clip-path="url(#clip0_36_36099)">
<path id="Vector" d="M62.668 17.1162C64.076 17.1162 65.198 17.5782 66.034 18.5022C66.87 19.4262 67.288 20.7242 67.288 22.3962V29.4802H64.208V22.7482C64.208 21.7802 63.9587 21.0322 63.46 20.5042C62.9613 19.9615 62.2793 19.6902 61.414 19.6902C60.534 19.6902 59.83 19.9762 59.302 20.5482C58.774 21.1202 58.51 21.9415 58.51 23.0122V29.4802H55.408V13.2002H58.51V19.7342C58.8327 18.9129 59.3607 18.2749 60.094 17.8202C60.842 17.3509 61.7 17.1162 62.668 17.1162ZM76.0894 17.1382C77.2774 17.1382 78.3407 17.3875 79.2794 17.8862C80.2327 18.3849 80.9807 19.1109 81.5234 20.0642C82.066 21.0029 82.3374 22.1102 82.3374 23.3862C82.3374 24.6622 82.066 25.7695 81.5234 26.7082C80.9807 27.6469 80.2327 28.3729 79.2794 28.8862C78.3407 29.3849 77.2774 29.6342 76.0894 29.6342C74.9014 29.6342 73.8307 29.3849 72.8774 28.8862C71.9387 28.3729 71.198 27.6469 70.6554 26.7082C70.1127 25.7695 69.8414 24.6622 69.8414 23.3862C69.8414 22.1102 70.1127 21.0029 70.6554 20.0642C71.198 19.1109 71.9387 18.3849 72.8774 17.8862C73.8307 17.3875 74.9014 17.1382 76.0894 17.1382ZM76.0894 19.8222C75.224 19.8222 74.4907 20.1302 73.8894 20.7462C73.288 21.3475 72.9874 22.2275 72.9874 23.3862C72.9874 24.5449 73.288 25.4322 73.8894 26.0482C74.4907 26.6495 75.224 26.9502 76.0894 26.9502C76.9547 26.9502 77.688 26.6495 78.2894 26.0482C78.8907 25.4322 79.1914 24.5449 79.1914 23.3862C79.1914 22.2275 78.8907 21.3475 78.2894 20.7462C77.688 20.1302 76.9547 19.8222 76.0894 19.8222ZM100.48 17.1162C101.961 17.1162 103.127 17.5782 103.978 18.5022C104.843 19.4115 105.276 20.7095 105.276 22.3962V29.4802H102.196V22.7482C102.196 21.8095 101.954 21.0909 101.47 20.5922C101 20.0789 100.348 19.8222 99.5116 19.8222C98.6463 19.8222 97.957 20.0935 97.4436 20.6362C96.9303 21.1789 96.6736 21.9709 96.6736 23.0122V29.4802H93.5936V22.7482C93.5936 21.8095 93.3516 21.0909 92.8676 20.5922C92.3983 20.0789 91.7456 19.8222 90.9096 19.8222C90.0443 19.8222 89.355 20.0935 88.8416 20.6362C88.3283 21.1789 88.0716 21.9709 88.0716 23.0122V29.4802H84.9696V17.2922H88.0716V19.6022C88.3943 18.8102 88.9003 18.2015 89.5896 17.7762C90.2936 17.3362 91.1076 17.1162 92.0316 17.1162C93.0143 17.1162 93.865 17.3509 94.5836 17.8202C95.317 18.2895 95.867 18.9642 96.2336 19.8442C96.615 19.0082 97.1796 18.3482 97.9276 17.8642C98.6903 17.3655 99.541 17.1162 100.48 17.1162ZM119.903 22.9242C119.903 23.2322 119.866 23.5842 119.793 23.9802H110.861C110.905 25.0655 111.198 25.8649 111.741 26.3782C112.284 26.8915 112.958 27.1482 113.765 27.1482C114.484 27.1482 115.078 26.9722 115.547 26.6202C116.031 26.2682 116.339 25.7915 116.471 25.1902H119.749C119.588 26.0409 119.243 26.8035 118.715 27.4782C118.187 28.1529 117.505 28.6809 116.669 29.0622C115.848 29.4435 114.931 29.6342 113.919 29.6342C112.731 29.6342 111.675 29.3849 110.751 28.8862C109.827 28.3729 109.108 27.6469 108.595 26.7082C108.082 25.7695 107.825 24.6622 107.825 23.3862C107.825 22.1102 108.082 21.0029 108.595 20.0642C109.108 19.1109 109.827 18.3849 110.751 17.8862C111.675 17.3875 112.731 17.1382 113.919 17.1382C115.122 17.1382 116.17 17.3875 117.065 17.8862C117.974 18.3849 118.671 19.0742 119.155 19.9542C119.654 20.8195 119.903 21.8095 119.903 22.9242ZM116.779 22.6162C116.823 21.6189 116.559 20.8635 115.987 20.3502C115.43 19.8369 114.74 19.5802 113.919 19.5802C113.083 19.5802 112.379 19.8369 111.807 20.3502C111.235 20.8635 110.92 21.6189 110.861 22.6162H116.779ZM125.053 26.8842H131.037V29.4802H121.665V27.0162L127.275 19.8662H121.797V17.2922H130.817V19.7342L125.053 26.8842Z" fill="#F4F4F4" style="fill:#F4F4F4;fill:color(display-p3 0.9569 0.9569 0.9569);fill-opacity:1;"/>
<path id="Vector_2" d="M20 0.97998H24C34.7696 0.97998 43.5 9.71043 43.5 20.48V24.48C43.5 35.2495 34.7696 43.98 24 43.98H20C9.23045 43.98 0.5 35.2495 0.5 24.48V20.48C0.5 9.71043 9.23045 0.97998 20 0.97998Z" fill="#0451DD" stroke="#0451DD" style="fill:#0451DD;fill:color(display-p3 0.0157 0.3176 0.8667);fill-opacity:1;stroke:#0451DD;stroke:color(display-p3 0.0157 0.3176 0.8667);stroke-opacity:1;"/>
<g id="Clip path group">
<mask id="mask0_36_36099" style="mask-type:luminance" maskUnits="userSpaceOnUse" x="10" y="10" width="24" height="25">
<g id="clip0_27_590">
<path id="Vector_3" d="M34 10.48H10V34.48H34V10.48Z" fill="white" style="fill:white;fill-opacity:1;"/>
</g>
</mask>
<g mask="url(#mask0_36_36099)">
<g id="Group">
<path id="Vector_4" d="M32.7715 22.5968L31.6482 21.6211V30.8298C31.6482 32.3794 30.3875 33.6399 28.8381 33.6399H25.4622C25.7456 33.3495 26.0459 33.0269 26.348 32.6781C26.6128 32.3725 26.8596 32.0685 27.0892 31.7666H28.8379C29.3544 31.7666 29.7747 31.3463 29.7747 30.8298V19.9942L22 13.2425L14.2252 19.9942V30.8298C14.2252 31.3463 14.6454 31.7666 15.1619 31.7666H16.9108C17.1402 32.0683 17.387 32.3725 17.652 32.6781C17.9541 33.0267 18.2544 33.3495 18.5377 33.6399H15.1619C13.6125 33.6399 12.3518 32.3794 12.3518 30.8298V21.6211L11.2283 22.5968L10 21.1823L22 10.7612L34 21.1823L32.7715 22.5968ZM22 24.6899C21.224 24.6899 20.5948 25.3189 20.5948 26.0949C20.5948 26.8709 21.224 27.5 22 27.5C22.776 27.5 23.4052 26.8709 23.4052 26.0949C23.4052 25.3189 22.776 24.6899 22 24.6899ZM27.3849 26.379C27.3849 27.8662 26.5597 29.5726 24.9321 31.4513C23.7798 32.7813 22.6392 33.7143 22.5912 33.7533L22 34.2346L21.4086 33.7533C21.3606 33.7143 20.22 32.7813 19.0677 31.4513C17.4401 29.5726 16.6149 27.8662 16.6149 26.379V26.0985C16.6149 23.1291 19.0306 20.7134 22 20.7134C24.9692 20.7134 27.3849 23.1291 27.3849 26.0985V26.379ZM25.5116 26.0985C25.5116 24.1622 23.9362 22.5868 22 22.5868C20.0637 22.5868 18.4884 24.1622 18.4884 26.0985V26.3792C18.4884 27.3737 19.197 28.7395 20.4837 30.2246C21.0416 30.8686 21.6006 31.4133 22.0026 31.7832C23.3434 30.5537 25.5114 28.1852 25.5114 26.3792L25.5116 26.0985Z" fill="#F4F4F4" style="fill:#F4F4F4;fill:color(display-p3 0.9569 0.9569 0.9569);fill-opacity:1;"/>
</g>
</g>
</g>
</g>
<defs>
<clipPath id="clip0_36_36099">
<rect width="138" height="44" fill="white" style="fill:white;fill-opacity:1;" transform="translate(0 0.47998)"/>
</clipPath>
</defs>
</svg>
