<svg width="139" height="44" viewBox="0 0 139 44" fill="none" xmlns="http://www.w3.org/2000/svg">
<g clip-path="url(#clip0_36_45453)">
<path d="M63.168 16.6362C64.576 16.6362 65.698 17.0982 66.534 18.0222C67.37 18.9462 67.788 20.2442 67.788 21.9162V29.0002H64.708V22.2682C64.708 21.3002 64.4587 20.5522 63.96 20.0242C63.4613 19.4815 62.7793 19.2102 61.914 19.2102C61.034 19.2102 60.33 19.4962 59.802 20.0682C59.274 20.6402 59.01 21.4615 59.01 22.5322V29.0002H55.908V12.7202H59.01V19.2542C59.3327 18.4329 59.8607 17.7949 60.594 17.3402C61.342 16.8709 62.2 16.6362 63.168 16.6362ZM76.5894 16.6582C77.7774 16.6582 78.8407 16.9075 79.7794 17.4062C80.7327 17.9049 81.4807 18.6309 82.0234 19.5842C82.566 20.5229 82.8374 21.6302 82.8374 22.9062C82.8374 24.1822 82.566 25.2895 82.0234 26.2282C81.4807 27.1669 80.7327 27.8929 79.7794 28.4062C78.8407 28.9049 77.7774 29.1542 76.5894 29.1542C75.4014 29.1542 74.3307 28.9049 73.3774 28.4062C72.4387 27.8929 71.698 27.1669 71.1554 26.2282C70.6127 25.2895 70.3414 24.1822 70.3414 22.9062C70.3414 21.6302 70.6127 20.5229 71.1554 19.5842C71.698 18.6309 72.4387 17.9049 73.3774 17.4062C74.3307 16.9075 75.4014 16.6582 76.5894 16.6582ZM76.5894 19.3422C75.724 19.3422 74.9907 19.6502 74.3894 20.2662C73.788 20.8675 73.4874 21.7475 73.4874 22.9062C73.4874 24.0649 73.788 24.9522 74.3894 25.5682C74.9907 26.1695 75.724 26.4702 76.5894 26.4702C77.4547 26.4702 78.188 26.1695 78.7894 25.5682C79.3907 24.9522 79.6914 24.0649 79.6914 22.9062C79.6914 21.7475 79.3907 20.8675 78.7894 20.2662C78.188 19.6502 77.4547 19.3422 76.5894 19.3422ZM100.98 16.6362C102.461 16.6362 103.627 17.0982 104.478 18.0222C105.343 18.9315 105.776 20.2295 105.776 21.9162V29.0002H102.696V22.2682C102.696 21.3295 102.454 20.6109 101.97 20.1122C101.5 19.5989 100.848 19.3422 100.012 19.3422C99.1463 19.3422 98.457 19.6135 97.9436 20.1562C97.4303 20.6989 97.1736 21.4909 97.1736 22.5322V29.0002H94.0936V22.2682C94.0936 21.3295 93.8516 20.6109 93.3676 20.1122C92.8983 19.5989 92.2456 19.3422 91.4096 19.3422C90.5443 19.3422 89.855 19.6135 89.3416 20.1562C88.8283 20.6989 88.5716 21.4909 88.5716 22.5322V29.0002H85.4696V16.8122H88.5716V19.1222C88.8943 18.3302 89.4003 17.7215 90.0896 17.2962C90.7936 16.8562 91.6076 16.6362 92.5316 16.6362C93.5143 16.6362 94.365 16.8709 95.0836 17.3402C95.817 17.8095 96.367 18.4842 96.7336 19.3642C97.115 18.5282 97.6796 17.8682 98.4276 17.3842C99.1903 16.8855 100.041 16.6362 100.98 16.6362ZM120.403 22.4442C120.403 22.7522 120.366 23.1042 120.293 23.5002H111.361C111.405 24.5855 111.698 25.3849 112.241 25.8982C112.784 26.4115 113.458 26.6682 114.265 26.6682C114.984 26.6682 115.578 26.4922 116.047 26.1402C116.531 25.7882 116.839 25.3115 116.971 24.7102H120.249C120.088 25.5609 119.743 26.3235 119.215 26.9982C118.687 27.6729 118.005 28.2009 117.169 28.5822C116.348 28.9635 115.431 29.1542 114.419 29.1542C113.231 29.1542 112.175 28.9049 111.251 28.4062C110.327 27.8929 109.608 27.1669 109.095 26.2282C108.582 25.2895 108.325 24.1822 108.325 22.9062C108.325 21.6302 108.582 20.5229 109.095 19.5842C109.608 18.6309 110.327 17.9049 111.251 17.4062C112.175 16.9075 113.231 16.6582 114.419 16.6582C115.622 16.6582 116.67 16.9075 117.565 17.4062C118.474 17.9049 119.171 18.5942 119.655 19.4742C120.154 20.3395 120.403 21.3295 120.403 22.4442ZM117.279 22.1362C117.323 21.1389 117.059 20.3835 116.487 19.8702C115.93 19.3569 115.24 19.1002 114.419 19.1002C113.583 19.1002 112.879 19.3569 112.307 19.8702C111.735 20.3835 111.42 21.1389 111.361 22.1362H117.279ZM125.553 26.4042H131.537V29.0002H122.165V26.5362L127.775 19.3862H122.297V16.8122H131.317V19.2542L125.553 26.4042Z" fill="#06173D" style="fill:#06173D;fill:color(display-p3 0.0235 0.0902 0.2392);fill-opacity:1;"/>
<path d="M63.168 16.6362C64.576 16.6362 65.698 17.0982 66.534 18.0222C67.37 18.9462 67.788 20.2442 67.788 21.9162V29.0002H64.708V22.2682C64.708 21.3002 64.4587 20.5522 63.96 20.0242C63.4613 19.4815 62.7793 19.2102 61.914 19.2102C61.034 19.2102 60.33 19.4962 59.802 20.0682C59.274 20.6402 59.01 21.4615 59.01 22.5322V29.0002H55.908V12.7202H59.01V19.2542C59.3327 18.4329 59.8607 17.7949 60.594 17.3402C61.342 16.8709 62.2 16.6362 63.168 16.6362ZM76.5894 16.6582C77.7774 16.6582 78.8407 16.9075 79.7794 17.4062C80.7327 17.9049 81.4807 18.6309 82.0234 19.5842C82.566 20.5229 82.8374 21.6302 82.8374 22.9062C82.8374 24.1822 82.566 25.2895 82.0234 26.2282C81.4807 27.1669 80.7327 27.8929 79.7794 28.4062C78.8407 28.9049 77.7774 29.1542 76.5894 29.1542C75.4014 29.1542 74.3307 28.9049 73.3774 28.4062C72.4387 27.8929 71.698 27.1669 71.1554 26.2282C70.6127 25.2895 70.3414 24.1822 70.3414 22.9062C70.3414 21.6302 70.6127 20.5229 71.1554 19.5842C71.698 18.6309 72.4387 17.9049 73.3774 17.4062C74.3307 16.9075 75.4014 16.6582 76.5894 16.6582ZM76.5894 19.3422C75.724 19.3422 74.9907 19.6502 74.3894 20.2662C73.788 20.8675 73.4874 21.7475 73.4874 22.9062C73.4874 24.0649 73.788 24.9522 74.3894 25.5682C74.9907 26.1695 75.724 26.4702 76.5894 26.4702C77.4547 26.4702 78.188 26.1695 78.7894 25.5682C79.3907 24.9522 79.6914 24.0649 79.6914 22.9062C79.6914 21.7475 79.3907 20.8675 78.7894 20.2662C78.188 19.6502 77.4547 19.3422 76.5894 19.3422ZM100.98 16.6362C102.461 16.6362 103.627 17.0982 104.478 18.0222C105.343 18.9315 105.776 20.2295 105.776 21.9162V29.0002H102.696V22.2682C102.696 21.3295 102.454 20.6109 101.97 20.1122C101.5 19.5989 100.848 19.3422 100.012 19.3422C99.1463 19.3422 98.457 19.6135 97.9436 20.1562C97.4303 20.6989 97.1736 21.4909 97.1736 22.5322V29.0002H94.0936V22.2682C94.0936 21.3295 93.8516 20.6109 93.3676 20.1122C92.8983 19.5989 92.2456 19.3422 91.4096 19.3422C90.5443 19.3422 89.855 19.6135 89.3416 20.1562C88.8283 20.6989 88.5716 21.4909 88.5716 22.5322V29.0002H85.4696V16.8122H88.5716V19.1222C88.8943 18.3302 89.4003 17.7215 90.0896 17.2962C90.7936 16.8562 91.6076 16.6362 92.5316 16.6362C93.5143 16.6362 94.365 16.8709 95.0836 17.3402C95.817 17.8095 96.367 18.4842 96.7336 19.3642C97.115 18.5282 97.6796 17.8682 98.4276 17.3842C99.1903 16.8855 100.041 16.6362 100.98 16.6362ZM120.403 22.4442C120.403 22.7522 120.366 23.1042 120.293 23.5002H111.361C111.405 24.5855 111.698 25.3849 112.241 25.8982C112.784 26.4115 113.458 26.6682 114.265 26.6682C114.984 26.6682 115.578 26.4922 116.047 26.1402C116.531 25.7882 116.839 25.3115 116.971 24.7102H120.249C120.088 25.5609 119.743 26.3235 119.215 26.9982C118.687 27.6729 118.005 28.2009 117.169 28.5822C116.348 28.9635 115.431 29.1542 114.419 29.1542C113.231 29.1542 112.175 28.9049 111.251 28.4062C110.327 27.8929 109.608 27.1669 109.095 26.2282C108.582 25.2895 108.325 24.1822 108.325 22.9062C108.325 21.6302 108.582 20.5229 109.095 19.5842C109.608 18.6309 110.327 17.9049 111.251 17.4062C112.175 16.9075 113.231 16.6582 114.419 16.6582C115.622 16.6582 116.67 16.9075 117.565 17.4062C118.474 17.9049 119.171 18.5942 119.655 19.4742C120.154 20.3395 120.403 21.3295 120.403 22.4442ZM117.279 22.1362C117.323 21.1389 117.059 20.3835 116.487 19.8702C115.93 19.3569 115.24 19.1002 114.419 19.1002C113.583 19.1002 112.879 19.3569 112.307 19.8702C111.735 20.3835 111.42 21.1389 111.361 22.1362H117.279ZM125.553 26.4042H131.537V29.0002H122.165V26.5362L127.775 19.3862H122.297V16.8122H131.317V19.2542L125.553 26.4042Z" fill="black" fill-opacity="0.2" style="fill:black;fill-opacity:0.2;"/>
<path d="M20.5 0.5H24.5C35.2696 0.5 44 9.23045 44 20V24C44 34.7696 35.2696 43.5 24.5 43.5H20.5C9.73045 43.5 1 34.7696 1 24V20C1 9.23045 9.73045 0.5 20.5 0.5Z" fill="#0451DD" stroke="#0451DD" style="fill:#0451DD;fill:color(display-p3 0.0157 0.3176 0.8667);fill-opacity:1;stroke:#0451DD;stroke:color(display-p3 0.0157 0.3176 0.8667);stroke-opacity:1;"/>
<mask id="mask0_36_45453" style="mask-type:luminance" maskUnits="userSpaceOnUse" x="10" y="10" width="25" height="24">
<path d="M34.5 10H10.5V34H34.5V10Z" fill="white" style="fill:white;fill-opacity:1;"/>
</mask>
<g mask="url(#mask0_36_45453)">
<path d="M33.2715 22.1168L32.1482 21.1411V30.3498C32.1482 31.8995 30.8875 33.16 29.3381 33.16H25.9622C26.2456 32.8696 26.5459 32.547 26.848 32.1982C27.1128 31.8926 27.3596 31.5886 27.5892 31.2866H29.3379C29.8544 31.2866 30.2747 30.8664 30.2747 30.3498V19.5142L22.5 12.7625L14.7252 19.5142V30.3498C14.7252 30.8664 15.1454 31.2866 15.6619 31.2866H17.4108C17.6402 31.5884 17.887 31.8926 18.152 32.1982C18.4541 32.5468 18.7544 32.8696 19.0377 33.16H15.6619C14.1125 33.16 12.8518 31.8995 12.8518 30.3498V21.1411L11.7283 22.1168L10.5 20.7023L22.5 10.2812L34.5 20.7023L33.2715 22.1168ZM22.5 24.2099C21.724 24.2099 21.0948 24.839 21.0948 25.615C21.0948 26.3909 21.724 27.0201 22.5 27.0201C23.276 27.0201 23.9052 26.3909 23.9052 25.615C23.9052 24.839 23.276 24.2099 22.5 24.2099ZM27.8849 25.899C27.8849 27.3862 27.0597 29.0926 25.4321 30.9713C24.2798 32.3013 23.1392 33.2344 23.0912 33.2733L22.5 33.7547L21.9086 33.2733C21.8606 33.2344 20.72 32.3013 19.5677 30.9713C17.9401 29.0926 17.1149 27.3862 17.1149 25.899V25.6185C17.1149 22.6491 19.5306 20.2334 22.5 20.2334C25.4692 20.2334 27.8849 22.6491 27.8849 25.6185V25.899ZM26.0116 25.6185C26.0116 23.6822 24.4362 22.1068 22.5 22.1068C20.5637 22.1068 18.9884 23.6822 18.9884 25.6185V25.8993C18.9884 26.8937 19.697 28.2596 20.9837 29.7446C21.5416 30.3886 22.1006 30.9333 22.5026 31.3032C23.8434 30.0737 26.0114 27.7052 26.0114 25.8993L26.0116 25.6185Z" fill="#F4F4F4" style="fill:#F4F4F4;fill:color(display-p3 0.9569 0.9569 0.9569);fill-opacity:1;"/>
</g>
</g>
<defs>
<clipPath id="clip0_36_45453">
<rect width="138" height="44" fill="white" style="fill:white;fill-opacity:1;" transform="translate(0.5)"/>
</clipPath>
</defs>
</svg>
