<?xml version="1.0" encoding="UTF-8"?>
<svg version="1.1" viewBox="0 0 840 1600" width="1280" height="1280" xmlns="http://www.w3.org/2000/svg">
<path transform="translate(510,1)" d="m0 0h316v304c-84.6 0.438-84.6 0.438-111 0.568-7.93 0.0433-7.93 0.0433-15.9 0.0878-3.52 0.0197-7.03 0.0368-10.5 0.0524-4.5 0.02-9 0.0444-13.5 0.072-1.64 0.00933-3.28 0.0171-4.93 0.0232-17.9-0.134-17.9-0.134-35.4 2.61-1.91 0.457-3.83 0.831-5.77 1.17-15.9 2.81-34.4 8.58-46.7 19.4-0.33 0.66-0.66 1.32-1 2-0.732 0.434-1.46 0.869-2.22 1.32-9.69 5.87-15.5 14-18.8 24.7l-1.07 3.21c-6.65 22-7.05 46.1-7.13 68.9-0.00961 1.66-0.0196 3.31-0.03 4.97-0.0267 4.45-0.0479 8.9-0.068 13.3-0.0221 4.67-0.0493 9.34-0.0761 14-0.0497 8.82-0.0947 17.6-0.138 26.5-0.0496 10-0.104 20.1-0.16 30.1-0.113 20.6-0.22 41.3-0.323 61.9 0.99-0.33 1.98-0.66 3-1 1.51-0.0908 3.02-0.126 4.53-0.126 0.933-0.00261 1.87-0.00522 2.83-0.0079 1.03 0.00223 2.05 0.00446 3.11 0.00676 1.63-0.00234 1.63-0.00234 3.3-0.00473 3.67-0.00401 7.34-8.22e-4 11 0.00232 2.62-0.00135 5.25-0.00313 7.87-0.00531 6.4-0.00445 12.8-0.00348 19.2-5.87e-4 5.21 0.00226 10.4 0.00256 15.6 0.00148 0.742-1.53e-4 1.48-3.06e-4 2.25-4.64e-4 1.51-3.2e-4 3.01-6.44e-4 4.52-9.73e-4 14.1-0.00285 28.3 4.31e-4 42.4 0.0058 12.1 0.00446 24.2 0.0037 36.3-9.19e-4 14.1-0.00537 28.1-0.00745 42.2-0.00439 1.51 3.19e-4 3.01 6.33e-4 4.52 9.43e-4 0.74 1.54e-4 1.48 3.09e-4 2.24 4.68e-4 5.19 8.6e-4 10.4-5.86e-4 15.6-0.00295 6.35-0.00282 12.7-0.00201 19 0.00328 3.23 0.00261 6.46 0.00315 9.7 3.51e-4 12.9-0.0101 25.8 0.0578 38.7 1.13 0.304 7.9-0.73 15.5-1.79 23.3-2.68 19.6-4.91 39.3-7.06 59.1-1.04 9.48-2.13 18.9-3.61 28.3-2.09 13.3-3.48 26.8-4.97 40.2-1.86 16.7-3.82 33.4-6.08 50-1.8 13.3-3.37 26.6-4.92 39.9-0.56 4.78-1.12 9.55-1.68 14.3-0.133 1.13-0.266 2.26-0.402 3.42-1.34 11.3-2.71 22.6-4.09 33.9-0.232 1.9-0.465 3.81-0.697 5.71-0.562 4.6-1.12 9.2-1.69 13.8-28.6 0.131-57.2 0.262-85.8 0.391-13.3 0.0602-26.6 0.121-39.8 0.182-11.6 0.0532-23.2 0.106-34.8 0.158-6.12 0.0276-12.2 0.0555-18.4 0.0838-5.79 0.0268-11.6 0.053-17.4 0.0788-2.1 0.00945-4.2 0.0191-6.3 0.029-16.2 0.0762-32.4 0.0774-48.6 0.0774v704c-36.1 0.495-36.1 0.495-73 1-0.99 0.33-1.98 0.66-3 1-1.37 0.113-2.75 0.176-4.13 0.205-1.25 0.0299-1.25 0.0299-2.53 0.0604-0.911 0.0167-1.82 0.0334-2.76 0.0507-0.955 0.0209-1.91 0.0417-2.89 0.0632-3.14 0.0666-6.29 0.125-9.43 0.183-1.08 0.0208-2.15 0.0417-3.26 0.0632-31.7 0.609-63.3 0.581-95-0.626v-2c-0.595 0.00524-1.19 0.0105-1.8 0.0159-2.69 0.0208-5.38 0.0338-8.07 0.0466-0.937 0.00838-1.87 0.0168-2.84 0.0254-0.896 0.00322-1.79 0.00645-2.71 0.00977-0.827 0.00524-1.65 0.0105-2.51 0.0159-2.06-0.114-2.06-0.114-4.06-1.11-2.44-0.272-4.87-0.495-7.32-0.684-1.5-0.124-3-0.249-4.51-0.373-2.36-0.191-4.72-0.379-7.08-0.566-15.4-1.23-15.4-1.23-22-2.9-5.21-1.2-10.6-1.63-15.9-2.25-5.29-0.668-10-1.72-15-3.52-3.35-1.12-6.77-1.7-10.3-2.27-5.06-0.86-9.95-1.96-14.9-3.44-1.65-0.44-3.29-0.878-4.94-1.31-5.48-1.49-10.9-3.17-16.3-4.89-3.14-0.996-6.28-1.95-9.46-2.83-2.71-0.798-5.07-1.68-7.6-2.91-4.76-2.19-9.65-3.65-14.7-5.06-0.866-7.2-1.14-14.3-1.12-21.5-8.54e-4 -1.12-0.00171-2.25-0.00259-3.41-0.00164-3.76 0.00386-7.53 0.00932-11.3 8.4e-4 -2.73 1.6e-4 -5.45-4.51e-4 -8.18-5.32e-4 -5.93 0.00263-11.9 0.00823-17.8 0.0083-8.81 0.0108-17.6 0.0121-26.4 0.00233-14.8 0.00918-29.6 0.0185-44.5 0.0126-20.2 0.0186-40.5 0.0229-60.7 0.00201-9.43 0.00433-18.9 0.00674-28.3 2.41e-4 -0.943 4.82e-4 -1.89 7.3e-4 -2.86 0.00581-22.4 0.0148-44.9 0.0242-67.3 6.2e-4 -1.47 6.2e-4 -1.47 0.00125-2.98 0.0063-14.9 0.0128-29.9 0.0193-44.8 0.00693-16 0.0138-31.9 0.0205-47.9 4.15e-4 -0.983 8.29e-4 -1.97 0.00126-2.98 0.00944-22.4 0.018-44.9 0.0237-67.3 3.61e-4 -1.41 3.61e-4 -1.41 7.3e-4 -2.85 0.00238-9.4 0.00461-18.8 0.00661-28.2 0.00432-20.2 0.0114-40.4 0.024-60.6 0.00916-14.7 0.0149-29.5 0.0171-44.2 0.00142-8.76 0.0057-17.5 0.0139-26.3 0.00523-5.84 0.00689-11.7 0.00557-17.5-6.45e-4 -3.33 8.96e-4 -6.67 0.0057-10 0.00492-3.58 0.0038-7.16 0.00105-10.7 0.00291-1.05 0.00583-2.1 0.00883-3.19-0.00299-1.42-0.00299-1.42-0.00603-2.86 5.7e-4 -1.23 5.7e-4 -1.23 0.00115-2.48 0.079-1.87 0.079-1.87-1.12-2.85-2.3-0.109-4.61-0.147-6.92-0.158-1.1-0.00741-1.1-0.00741-2.22-0.015-2.47-0.0154-4.94-0.0238-7.41-0.0321-1.76-0.00957-3.53-0.0196-5.29-0.03-4.8-0.0271-9.61-0.0481-14.4-0.068-5.01-0.0218-10-0.0492-15-0.0761-9.5-0.05-19-0.0949-28.5-0.138-10.8-0.0493-21.6-0.104-32.4-0.16-22.3-0.114-44.5-0.221-66.8-0.323v-13h-2c0.163-0.572 0.325-1.14 0.492-1.73 0.507-2.27 0.631-4.22 0.628-6.54 0.00137-0.851 0.00275-1.7 0.00416-2.58-0.00359-0.93-0.00719-1.86-0.0109-2.82 2.23e-4 -1.49 2.23e-4 -1.49 4.51e-4 -3.01-6.96e-4 -3.34-0.00855-6.67-0.0163-10-0.00192-2.39-0.00338-4.78-0.00443-7.17-0.00317-5.16-0.00934-10.3-0.0181-15.5-0.0126-7.51-0.0186-15-0.0229-22.5-0.00708-12.3-0.0179-24.5-0.0317-36.8-8.28e-4 -0.734-0.00166-1.47-0.00251-2.22-0.00755-6.66-0.0153-13.3-0.0232-20-0.00517-4.39-0.0103-8.77-0.0153-13.2-8.28e-4 -0.72-0.00166-1.44-0.00251-2.18-0.0139-12.2-0.0235-24.3-0.0304-36.5-0.00402-6.8-0.0103-13.6-0.0217-20.4-0.0534-32 0.166-64 1.08-95.9 5.21-0.727 10.2-1.12 15.5-1.12 0.709-8.54e-4 1.42-0.00171 2.15-0.00259 2.35-0.00163 4.7 0.00383 7.06 0.00932 1.7 2.82e-4 3.39 1.23e-4 5.09-4.43e-4 4.59-2.86e-4 9.17 0.00558 13.8 0.0126 4.8 0.00626 9.6 0.00684 14.4 0.00803 9.08 0.0031 18.2 0.0113 27.2 0.0213 10.3 0.0112 20.7 0.0167 31 0.0217 21.3 0.0104 42.5 0.028 63.8 0.0503-0.00138-1.23-0.00138-1.23-0.00279-2.48-0.0223-20.1-0.0388-40.3-0.049-60.4-0.0051-9.74-0.012-19.5-0.0236-29.2-0.0877-75.3-0.0877-75.3 0.521-102 0.0198-0.884 0.0396-1.77 0.06-2.68 1.15-49.2 1.15-49.2 4.49-71.8 0.277-1.99 0.554-3.98 0.829-5.98 5.23-37.6 13.4-73.5 27.2-109l1.23-3.37c2.79-7.55 6.15-14.7 9.84-21.8 0.929-1.83 1.82-3.68 2.7-5.53 3.93-8.21 8.34-16 13.1-23.8 0.572-0.939 1.14-1.88 1.73-2.85 0.539-0.866 1.08-1.73 1.63-2.62 0.483-0.778 0.966-1.56 1.46-2.36 0.427-0.552 0.854-1.1 1.29-1.67h2l0.223-1.59c1.1-3.41 3.14-6.09 5.21-8.97 0.811-1.15 1.62-2.29 2.43-3.44 0.703-0.989 1.41-1.98 2.13-3 0.66-0.99 1.32-1.98 2-3h2c0.227-0.536 0.454-1.07 0.688-1.62 1.77-3.2 3.85-5.67 6.31-8.38h2c0.227-0.536 0.454-1.07 0.688-1.62 2.97-5.38 7.16-9.3 11.8-13.2 2.02-1.72 4.02-3.46 6.01-5.22 1.25-1.1 2.51-2.2 3.76-3.3 0.603-0.536 1.21-1.07 1.83-1.63 0.578-0.503 1.16-1.01 1.75-1.52l1.56-1.37c1.84-1.26 3.44-1.69 5.61-2.1v-2c2.3-1.95 2.3-1.95 5.31-4.12 1.48-1.09 1.48-1.09 2.99-2.2 2.7-1.68 2.7-1.68 5.7-1.68v-2c2.06-1.48 4.09-2.81 6.25-4.12 0.587-0.373 1.17-0.745 1.78-1.13 3.36-2.06 4.93-2.75 8.97-2.75v-2c17.9-10.3 37.2-17.7 56.8-24.3 2.15-0.718 4.29-1.45 6.43-2.18 10.8-3.68 21.6-6.58 32.7-9.12 3.2-0.737 6.33-1.51 9.47-2.47 4.61-1.24 9.21-1.85 13.9-2.47 5.32-0.704 10.6-1.45 15.9-2.53 7.79-1.61 15.5-2.18 23.5-2.57 4.83-0.256 9.57-0.747 14.4-1.39v-1z" fill="#FCFDFE"/>
<path transform="translate(0,852)" d="m0 0h1v16h-1v-16z" fill="#FCFDFF"/>
<path transform="translate(275,1590)" d="m0 0h6v1h-6v-1z" fill="#000002"/>
<path transform="translate(232,1580)" d="m0 0 4 1z" fill="#000002"/>
<path transform="translate(521)" d="m0 0 4 1z" fill="#FDFEFF"/>
<path transform="translate(331,1596)" d="m0 0 2 1z" fill="#000002"/>
<path transform="translate(312,1594)" d="m0 0 2 1z" fill="#000002"/>
<path transform="translate(288,1591)" d="m0 0 2 1z" fill="#000002"/>
<path transform="translate(262,1586)" d="m0 0 2 1z" fill="#000002"/>
<path transform="translate(200,1570)" d="m0 0 2 1z" fill="#000002"/>
</svg>
