<?xml version="1.0" encoding="UTF-8"?>
<svg version="1.1" viewBox="0 0 1600 1600" width="1280" height="1280" xmlns="http://www.w3.org/2000/svg">
<path transform="translate(829 4.44)" d="m0 0c0.868 0.0196 1.74 0.0391 2.63 0.0593 9.24 0.213 18.5 0.496 27.7 0.976 1.13 0.0556 1.13 0.0556 2.29 0.112 3.09 0.173 5.68 0.431 8.63 1.41 1.39 0.189 2.78 0.34 4.18 0.465 0.837 0.0768 1.67 0.154 2.54 0.233 0.9 0.0792 1.8 0.158 2.73 0.24 1.9 0.174 3.8 0.349 5.7 0.523 3 0.271 6 0.541 9 0.81 2.89 0.26 5.78 0.526 8.68 0.792 0.904 0.0792 1.81 0.158 2.74 0.24 6.33 0.584 6.33 0.584 7.44 1.7 2.23 0.347 4.46 0.637 6.7 0.902 1.39 0.17 2.77 0.34 4.16 0.51 2.19 0.263 4.38 0.525 6.57 0.783 2.11 0.251 4.22 0.51 6.33 0.77 1.27 0.151 2.53 0.301 3.84 0.457 3.1 0.528 5.52 1.36 8.4 2.58 2.09 0.479 2.09 0.479 4.19 0.746 0.775 0.113 1.55 0.227 2.35 0.344 0.813 0.115 1.63 0.229 2.46 0.348 10.5 1.57 20.6 3.88 30.8 6.75 4.07 1.05 8.17 1.93 12.3 2.82 6.11 1.33 12 2.82 17.9 5 5.44 1.93 10.9 3.54 16.5 5 9.77 2.57 19.1 5.95 28.6 9.52 3.31 1.25 6.62 2.47 9.95 3.67 0.868 0.315 1.74 0.629 2.63 0.953 1.47 0.531 2.93 1.06 4.4 1.59 9.6 3.53 19 7.68 28.4 11.7 2.8 1.18 5.62 2.33 8.45 3.45 13.3 5.29 26.2 11.4 38.9 17.9 1.62 0.83 3.23 1.66 4.85 2.48 12.3 6.26 24.3 12.9 36.1 20.1 3.24 1.98 6.51 3.84 9.86 5.6 7.62 4.06 14.8 8.85 22.1 13.5 2.22 1.42 4.45 2.81 6.69 4.21 1.28 0.806 2.57 1.61 3.85 2.42 0.891 0.549 0.891 0.549 1.8 1.11 1.37 0.869 2.7 1.81 4.01 2.77v2c0.66 0.217 1.32 0.433 2 0.656 4.03 1.81 7.42 4.27 11 6.84 0.75 0.535 1.5 1.07 2.27 1.62 5.68 4.07 11.2 8.28 16.7 12.6 2.81 2.16 5.66 4.24 8.54 6.3 5.01 3.62 9.75 7.51 14.5 11.5 2.79 2.35 5.62 4.65 8.47 6.94 5.08 4.15 9.9 8.53 14.7 13 4.18 3.86 8.44 7.64 12.8 11.3 0.646 0.536 1.29 1.07 1.96 1.62 0.578 0.471 1.16 0.941 1.75 1.43 1.25 1.26 1.25 1.26 1.25 3.26 0.541 0.227 1.08 0.454 1.64 0.688 3.1 1.73 5.49 3.93 8.11 6.31l1.54 1.37c1.28 1.17 2.5 2.4 3.71 3.63v2c0.581 0.244 1.16 0.487 1.76 0.738 2.64 1.49 4.09 3.14 6.05 5.45 4.09 4.68 8.39 9.07 12.8 13.4 4.42 4.38 8.76 8.75 12.8 13.5 1.94 2.28 3.95 4.48 5.97 6.69 3.92 4.34 7.61 8.83 11.3 13.4 3.22 3.86 6.63 7.53 10.1 11.2 2.37 2.73 4.29 5.58 6.26 8.61 1.05 1.39 2.11 2.76 3.19 4.12 3.63 4.62 7.16 9.32 10.7 14 1.26 1.68 2.52 3.36 3.79 5.04 3.92 5.17 7.65 10.5 11.3 15.8 0.44 0.626 0.879 1.25 1.33 1.9 2.67 3.87 2.67 3.87 2.67 6.1h2c1.47 2.1 2.81 4.18 4.12 6.38 0.559 0.905 0.559 0.905 1.13 1.83 2.75 4.53 2.75 4.53 2.75 6.8h2c0.531 0.953 1.06 1.91 1.61 2.89 0.713 1.27 1.43 2.53 2.14 3.8 0.348 0.626 0.696 1.25 1.05 1.9 2.13 3.76 4.48 7.04 7.2 10.4 0.75 2.81 0.75 2.81 1 5h2c0.578 1.18 1.16 2.35 1.75 3.56 2.78 5.56 5.91 10.9 9.12 16.2 4.36 7.25 8.36 14.7 12.1 22.2 0.645 1.29 1.29 2.58 1.94 3.88 1.37 2.75 2.75 5.5 4.12 8.25 0.33 0.66 0.66 1.32 1 2 0.834 1.67 1.67 3.34 2.5 5.01 0.971 1.94 1.95 3.87 2.94 5.8 2.53 4.97 4.93 9.87 6.79 15.1 1.71 4.65 3.65 9.24 6.27 13.4 1.66 2.89 2.55 5.74 3.55 8.91 1.36 4.01 3.05 7.87 4.7 11.8 3.13 7.48 5.74 15.2 8.45 22.8 0.539 1.5 1.09 2.99 1.64 4.48 2.65 7.15 4.95 14.4 7.15 21.7 2.64 8.76 2.64 8.76 5.5 17.5 2.09 6.19 3.59 12.6 5.19 18.9 1.14 4.47 2.33 8.88 3.84 13.2 1.62 4.71 2.52 9.4 3.41 14.3 0.389 3.27 0.389 3.27 2.01 5.98 0.345 1.67 0.635 3.35 0.902 5.03 0.252 1.56 0.252 1.56 0.51 3.15 0.173 1.1 0.347 2.19 0.525 3.32 1.34 8.59 1.34 8.59 3.09 17.1 1.4 6.03 2.1 12.2 2.91 18.3 0.123 0.904 0.246 1.81 0.373 2.74 0.162 1.23 0.162 1.23 0.326 2.48 0.173 1.9 0.173 1.9 1.36 2.9 0.362 2.78 0.668 5.55 0.938 8.34 0.085 0.837 0.17 1.67 0.258 2.54 0.273 2.69 0.539 5.37 0.805 8.06 0.266 2.68 0.533 5.37 0.805 8.05 0.17 1.67 0.336 3.35 0.498 5.02 0.344 4.13 0.344 4.13 1.7 7.99 0.216 2.29 0.371 4.59 0.5 6.88 0.0605 1.06 0.0605 1.06 0.122 2.15 0.132 2.36 0.255 4.73 0.378 7.09 0.0432 0.813 0.0865 1.63 0.131 2.46 0.695 13.2 1.17 26.3 1.49 39.5 0.0205 0.81 0.0409 1.62 0.062 2.46 0.468 19 0.351 37.9-0.562 56.9-0.0445 0.951-0.0889 1.9-0.135 2.88-0.559 11.9-1.19 23.8-2.05 35.7-0.0791 1.1-0.158 2.2-0.24 3.33-0.568 7.28-0.568 7.28-1.7 9.54-0.27 2.15-0.489 4.31-0.684 6.48-0.123 1.31-0.246 2.62-0.373 3.97-0.191 2.08-0.379 4.16-0.566 6.24-1.18 13.1-1.18 13.1-2.35 17.5-1.48 5.55-2.2 11.2-3.03 16.9-1.03 7.12-2.17 14-4 21-0.317 1.83-0.61 3.66-0.875 5.5-1.11 6.92-2.84 13.6-4.59 20.4-0.528 2.06-1.04 4.13-1.54 6.2-1.79 7.34-3.77 14.6-6.05 21.8-0.938 3.1-1.74 6.2-2.5 9.34-1.22 5.03-2.73 9.87-4.44 14.8-1.76 5.16-3.42 10.3-5 15.6-1.5 4.89-3.13 9.68-5 14.4-0.834 2.17-1.67 4.33-2.5 6.5-0.402 1.04-0.804 2.08-1.22 3.16-0.899 2.35-1.79 4.7-2.67 7.05-9.47 25.3-9.47 25.3-15.1 37.2-1.76 3.73-3.39 7.51-5.03 11.3-2.62 6.04-5.42 12-8.44 17.8-0.835 1.67-1.67 3.33-2.5 5-3.17 6.33-6.33 12.7-9.5 19h-2l-3 9h-2c-0.206 0.949-0.412 1.9-0.625 2.88-1.22 4.29-3.43 7.78-5.78 11.5-2.34 3.78-4.47 7.68-6.6 11.6h-2c-0.248 1.05-0.495 2.1-0.75 3.19-0.87 3.7-2.88 5.89-5.25 8.81-1.87 3.15-3.64 6.34-5.41 9.55-0.523 0.808-1.05 1.62-1.59 2.45h-2c-0.25 0.877-0.5 1.75-0.758 2.66-1.3 3.49-2.87 5.89-5.12 8.84l-2.18 2.9c-0.643 0.857-1.29 1.71-1.95 2.6-1.34 1.99-2.68 3.99-4 6-4.74 6.89-9.55 13.7-14.8 20.2-1.71 2.15-3.39 4.32-5.05 6.52-5.66 7.49-11.4 14.9-17.5 22-3.11 3.62-5.9 7.36-8.62 11.3-0.994 1.01-2 2-3 3-1.81 2.11-3.6 4.23-5.38 6.36-0.802 0.814-0.802 0.814-1.62 1.64h-2c-0.227 0.536-0.454 1.07-0.688 1.62-1.77 3.2-3.85 5.67-6.31 8.38h-2c-0.402 0.959-0.402 0.959-0.812 1.94-1.19 2.06-1.19 2.06-4.19 3.06-0.33 0.66-0.66 1.32-1 2-0.33 0.66-0.66 1.32-1 2-0.99 0.33-1.98 0.66-3 1-0.696 1.32-1.36 2.65-2 4-1.16 1.34-2.37 2.64-3.62 3.89-0.706 0.709-1.41 1.42-2.14 2.15-0.737 0.73-1.47 1.46-2.23 2.21-1.11 1.12-1.11 1.12-2.23 2.26-0.706 0.704-1.41 1.41-2.14 2.13-0.647 0.645-1.29 1.29-1.96 1.95-1.66 1.41-1.66 1.41-3.66 1.41-0.402 0.959-0.402 0.959-0.812 1.94-1.19 2.06-1.19 2.06-4.19 3.06-0.684 1.32-1.35 2.66-2 4-1.4 1.61-2.87 3.17-4.38 4.69-0.771 0.788-1.54 1.58-2.34 2.39-2.27 1.91-3.46 2.36-6.29 2.93-0.699 1.32-1.37 2.65-2 4-0.99 0.33-1.98 0.66-3 1-0.402 0.866-0.402 0.866-0.812 1.75-1.7 3.21-4.39 5.04-7.19 7.25-1.07 0.912-2.13 1.83-3.19 2.75-3.17 2.71-6.36 5.4-9.56 8.06-0.923 0.77-1.85 1.54-2.8 2.33-2.45 1.86-2.45 1.86-5.45 2.86-0.33 0.99-0.66 1.98-1 3-1.32 0.702-2.65 1.37-4 2-0.406 0.411-0.812 0.822-1.23 1.25-2.54 2.52-5.37 4.64-8.21 6.82l-1.74 1.35c-2.84 2.19-5.59 4.05-8.83 5.58l-1.69 1.75c-3.3 3.21-8.52 8.25-13.3 8.25-0.33 0.99-0.66 1.98-1 3-2.64 1.92-2.64 1.92-6 4-1.09 0.697-2.18 1.39-3.3 2.11-1.15 0.733-2.3 1.47-3.45 2.2-4.2 2.68-8.33 5.41-12.4 8.31-5.41 3.84-11.1 7.09-16.9 10.4-0.901 0.562-1.8 1.12-2.73 1.7-2.27 1.3-2.27 1.3-4.27 1.3v2c-1.31 0.729-2.62 1.46-3.94 2.19-0.825 0.459-1.65 0.918-2.5 1.39-1.6 0.889-3.21 1.77-4.81 2.66-4.03 2.22-7.97 4.52-11.9 6.95-3.93 2.39-7.39 3.84-11.9 4.81v2c-13.2 6.67-26.4 13.2-40 19.1-2.31 1.05-4.57 2.2-6.84 3.36-4.68 2.37-9.45 4.39-14.3 6.37-2.57 1.06-5.1 2.17-7.64 3.32-3.3 1.48-6.64 2.79-10 4.03-2.67 1.02-5.28 2.15-7.9 3.28-5.46 2.31-11 4.06-16.7 5.67-2.74 0.721-2.74 0.721-4.62 2.89-2.23 0.732-4.48 1.39-6.75 2-4.47 1.22-8.87 2.5-13.2 4-5 1.67-10 3.33-15 5-0.584 0.214-1.17 0.428-1.77 0.648-5.96 2.12-12 3.54-18.2 4.91-2.98 0.67-5.76 1.34-8.6 2.48-3.11 1.24-6.19 1.79-9.49 2.41-7.93 1.52-15.7 3.41-23.5 5.54-8.69 2.33-17.3 3.87-26.3 4.99-0.846 0.108-1.69 0.217-2.56 0.328-0.747 0.0898-1.49 0.18-2.26 0.272-2.48 0.404-2.48 0.404-5.27 1.43-3.06 0.999-5.8 1.46-9 1.79-1.11 0.12-2.22 0.24-3.36 0.363-1.14 0.117-2.29 0.235-3.47 0.355-2.27 0.235-4.53 0.475-6.8 0.719-0.999 0.102-2 0.205-3.03 0.311-2.71 0.372-5.26 0.869-7.92 1.46-5.7 1.15-11.3 1.46-17.1 1.63-1.12 0.0376-2.24 0.0752-3.39 0.114-13.8 0.42-27.7 0.416-41.5 0.404-3.83-0.00259-7.66-1.67e-4 -11.5 0.00139-6.42 0.0018-12.8-5.32e-4 -19.3-0.00534-7.35-0.00544-14.7-0.00367-22.1 0.00183-6.4 0.00459-12.8 0.00516-19.2 0.00256-3.78-0.00153-7.57-0.00184-11.4 0.00154-14.1 0.0108-28.1-0.0349-42.2-0.582-1-0.0387-2-0.0774-3.03-0.117-15.2-0.671-15.2-0.671-16.9-2.44-2.19-0.348-4.39-0.637-6.6-0.902-1.37-0.17-2.75-0.34-4.12-0.51-2.16-0.262-4.33-0.523-6.49-0.783-7.39-0.894-14.6-1.87-21.8-3.8-3.07-0.548-6.16-0.99-9.25-1.44-7.39-1.12-14.5-2.61-21.8-4.56-2.64-0.672-5.29-1.34-7.94-2-1.02-0.257-1.02-0.257-2.07-0.519-4.17-1.04-8.36-2.03-12.6-2.98-11.6-2.66-23.1-5.92-34.4-9.5-2.23-0.689-4.46-1.38-6.69-2.06-1.07-0.33-2.14-0.66-3.24-1-3.54-1.08-7.1-2.12-10.7-3.13-2.41-0.809-2.41-0.809-5.55-2.18-4.68-2.04-9.52-3.56-14.4-5.13-5.96-1.93-11.8-3.94-17.5-6.5l-2.5-1c-4.31-1.72-8.56-3.59-12.8-5.44-2.79-1.2-5.61-2.32-8.44-3.44-5.5-2.19-10.9-4.63-16.2-7.12-1.7-0.789-1.7-0.789-3.43-1.59-9.54-4.44-19.1-8.92-28.6-13.4v-2l-1.62-0.48c-6.13-1.92-11.7-4.52-17.4-7.52v-2l-1.69-0.48c-5.77-1.76-10.3-4.21-15.3-7.52-1.62-0.987-3.25-1.97-4.88-2.94-1.27-0.76-1.27-0.76-2.57-1.54-1.65-0.987-3.31-1.97-4.96-2.96-19.3-11.6-19.3-11.6-24.5-15.3-2.64-1.9-5.29-3.46-8.12-5.03-3.55-2.16-6.85-4.68-10.2-7.15-2.54-1.86-5.1-3.66-7.69-5.44-4.57-3.18-8.96-6.56-13.3-9.99-3.95-3.07-8.01-5.86-12.3-8.48-0.499-0.382-0.998-0.763-1.51-1.16v-2l-2.19-0.723c-3.24-1.47-5.18-3.25-7.75-5.71-4.16-3.89-8.41-7.48-12.9-10.9-6.06-4.66-11.7-9.68-17.2-14.9-2.28-2.13-4.57-4.19-6.95-6.2-6.46-5.58-12.3-11.8-18.3-17.9-2.1-2.07-4.23-4.07-6.39-6.06l-2-1.84c-1.38-1.26-2.76-2.52-4.14-3.77l-1.98-1.83c-0.597-0.544-1.19-1.09-1.81-1.65-1.3-1.43-1.3-1.43-1.3-3.43l-1.69-0.688c-5.44-3.09-9.4-8.62-13.5-13.2-2.74-3.04-5.56-6.01-8.37-8.98-6.13-6.48-12-13-17.4-20.1-1.79-2.3-3.58-4.59-5.38-6.88-0.702-0.899-0.702-0.899-1.42-1.82-2.99-3.82-6.07-7.55-9.21-11.2-5.13-6.12-9.83-12.5-14.5-19-1.61-2.23-3.23-4.46-4.84-6.69-3.23-4.46-6.45-8.92-9.66-13.4l-2.24-3.12c-2.75-3.87-5.28-7.72-7.56-11.9-1.61-2.69-3.44-5.19-5.26-7.75-5.47-7.73-10.1-15.9-14.7-24.2-1.49-2.59-3.02-5.16-4.57-7.71-1.71-2.82-3.36-5.66-4.96-8.55-0.434-0.785-0.869-1.57-1.32-2.38-0.446-0.807-0.892-1.61-1.35-2.44-0.871-1.56-1.74-3.13-2.61-4.69-8.52-15.4-16.3-30.9-23.4-46.9-1.15-2.59-2.35-5.13-3.62-7.67-1.27-2.54-2.32-5.08-3.36-7.73-3.07-7.79-6.34-15.5-9.73-23.1-2.23-5.12-4.09-10.2-5.58-15.6-0.718-2.39-1.6-4.66-2.56-6.96-2.74-6.65-4.9-13.5-7.12-20.3-0.519-1.58-1.04-3.17-1.56-4.75l-0.691-2.09c-0.544-1.57-1.12-3.13-1.71-4.69-2.31-6.07-3.94-12.1-5.32-18.4-0.794-3.39-1.87-6.59-3.03-9.87-1.02-3.26-1.59-6.57-2.16-9.93-0.421-2.25-0.421-2.25-1.49-4.06-1.52-3.23-1.95-6.64-2.54-10.1-0.859-5.36-0.859-5.36-2.5-10.5-1.45-3.67-1.95-7.41-2.57-11.3-0.395-5.03-0.395-5.03-2.44-9.25-0.371-2.14-0.684-4.29-0.973-6.44l-0.537-3.96c-0.184-1.39-0.369-2.78-0.553-4.17-0.188-1.39-0.376-2.79-0.564-4.18-0.461-3.42-0.919-6.84-1.37-10.3h-1l-4-37h-1c-4-50.5-4.94-100-2-151 0.0863-1.52 0.173-3.04 0.259-4.56 0.232-4.04 0.483-8.08 0.741-12.1 0.106-1.73 0.106-1.73 0.214-3.49 0.352-5.07 0.917-9.74 2.29-14.6 1.44-6.35 1.67-13 2.27-19.5 0.7-7.11 1.85-13.9 3.55-20.8 0.85-3.61 1.33-7.14 1.74-10.8 0.523-4.65 1.45-8.64 2.94-13.1 0.499-2.63 0.956-5.24 1.38-7.88 2.02-12 5.07-23.6 8.75-35.2 1.03-3.51 1.72-7.03 2.38-10.6 0.658-3.11 1.66-6.05 2.71-9.05 1.07-3.12 2.01-6.27 2.94-9.43l0.844-2.85c0.211-0.723 0.422-1.45 0.639-2.19 1.78-6.03 3.76-12 5.86-17.9 0.594-1.68 1.19-3.36 1.78-5.04 0.287-0.811 0.574-1.62 0.869-2.46 1.1-3.17 2.14-6.35 3.17-9.54 0.68-1.91 0.68-1.91 2.18-4.84 1.28-2.62 2.09-4.9 2.88-7.69 1.73-6.01 4.16-11.6 6.62-17.4 0.877-2.1 1.75-4.21 2.62-6.31 0.791-1.9 1.58-3.79 2.38-5.69 0.277-0.669 0.554-1.34 0.84-2.03 1.49-3.56 3.18-6.98 4.93-10.4 1.66-3.46 3.15-6.98 4.67-10.5 2.22-5.16 4.56-10.1 7.38-15 2.61-4.58 4.86-9.36 7.18-14.1 4.89-9.9 10.4-19.5 16-29 2.25-3.87 4.48-7.75 6.64-11.7 2.02-3.65 4.14-7.21 6.34-10.8 3.04-4.89 5.99-9.83 8.84-14.8 0.405-0.571 0.81-1.14 1.23-1.73h2c0.248-0.887 0.495-1.77 0.75-2.69 1.3-3.45 2.89-5.52 5.25-8.31l1.06-2.12c1.05-2.09 2.29-3.22 3.94-4.88 1.97-2.84 3.82-5.7 5.56-8.69 1.34-2.15 2.66-3.54 4.44-5.31 2.12-3.08 4.13-6.21 6.12-9.38l1.88-2.62h2c0.248-0.722 0.495-1.44 0.75-2.19 1.38-3.11 3.09-5.17 5.25-7.81 1.47-2.22 2.91-4.46 4.34-6.72 1.98-2.72 4.27-4.92 6.66-7.28 1.56-1.86 3.11-3.73 4.62-5.62 2.36-2.93 4.68-5.75 7.38-8.38 0.928-1.05 1.84-2.12 2.75-3.19 2.16-2.54 4.35-5.06 6.56-7.56 2.81-3.19 5.47-6.48 8.12-9.81 3.34-4.13 6.77-7.62 10.9-10.9 1.8-1.7 2.55-3.33 3.63-5.54 2.12-0.75 2.12-0.75 4-1l0.285-1.8c0.874-2.69 1.98-3.67 4.15-5.45l1.87-1.58c1.69-1.17 1.69-1.17 3.69-1.17l0.75-1.69c2.43-4.5 5.57-7.73 9.54-10.9 1.96-1.59 3.87-3.23 5.77-4.88l1.91-1.66c1.49-1.35 2.93-2.76 4.34-4.19 3.06-3.03 6.28-5.81 9.56-8.59 0.587-0.5 1.17-0.999 1.78-1.51 1.18-1.01 2.37-2.01 3.55-3.02 2.4-2.04 4.79-4.09 7.18-6.14 2.27-1.95 4.54-3.89 6.82-5.83 1.22-1.06 2.43-2.13 3.63-3.21 4.65-4.18 9.54-7.86 14.6-11.5 2.98-2.16 5.75-4.46 8.55-6.85 2.93-2.44 5.61-4.3 9-6l1.5-1.5c1.69-1.69 3.37-2.43 5.5-3.5l1.5-1.5c1.69-1.69 3.37-2.43 5.5-3.5 0.456-0.461 0.913-0.923 1.38-1.4 1.72-1.7 3.46-2.91 5.49-4.23 3.84-2.51 7.62-5.11 11.4-7.75 6.42-4.48 13-8.57 19.8-12.6 2.17-1.33 4.33-2.66 6.5-4l3.22-1.98c2.26-1.39 4.52-2.79 6.77-4.2l1.75-1.08c1.6-0.991 3.19-1.98 4.79-2.98 2.93-1.74 5.92-3.25 8.97-4.76 2.01-1.15 4.01-2.32 6-3.5 3.93-2.34 7.89-4.49 12-6.5 8.04-3.98 16-7.99 23.9-12.2 7.69-4.14 15.5-7.55 23.6-10.8 3-1.21 5.95-2.53 8.9-3.86 5.49-2.44 11-4.78 16.6-7.14 1.26-0.54 2.52-1.08 3.78-1.62 8.69-3.72 17.6-6.88 26.5-10 2.5-0.893 5.01-1.79 7.51-2.7 1.21-0.437 2.42-0.874 3.67-1.32 1.09-0.396 2.18-0.791 3.31-1.2 2.2-0.753 4.42-1.44 6.66-2.07 2.58-0.75 5-1.55 7.5-2.51 4.14-1.59 8.34-2.87 12.6-4.1 0.708-0.208 1.42-0.416 2.14-0.631 4.76-1.39 9.54-2.64 14.4-3.81 2.05-0.499 4.1-0.998 6.15-1.5 1.37-0.336 2.74-0.669 4.12-1 2.78-0.684 5.44-1.37 8.08-2.5 4.22-1.58 8.61-2.21 13-3 5.99-1.07 11.8-2.3 17.6-4 2.6-0.531 5.2-1.03 7.81-1.5 1.32-0.239 2.64-0.478 3.96-0.719 0.682-0.123 1.36-0.246 2.07-0.373 2.3-0.435 4.6-0.92 6.89-1.4 6.99-1.41 14.1-2.13 21.1-2.95 1.03-0.123 2.07-0.246 3.13-0.373 1.4-0.162 1.4-0.162 2.84-0.326 2.13-0.138 2.13-0.138 3.16-1.36 1.37-0.204 2.74-0.348 4.12-0.465 0.874-0.0768 1.75-0.154 2.65-0.233 0.951-0.0792 1.9-0.158 2.88-0.24 1.46-0.127 1.46-0.127 2.94-0.258 3.11-0.273 6.23-0.539 9.34-0.805 4.09-0.35 8.19-0.704 12.3-1.06 1.42-0.119 1.42-0.119 2.88-0.24 0.878-0.0768 1.76-0.154 2.66-0.233 0.774-0.0658 1.55-0.132 2.35-0.199 1.99-0.174 1.99-0.174 3.9-1.27 11-1.14 22-1.29 33.1-1.56 0.817-0.0208 1.63-0.0417 2.47-0.0632 19.8-0.499 39.5-0.393 59.2 0.0632zm-233 417c-0.712 0.0417-1.42 0.0833-2.16 0.126-20.2 1.19-40.3 2.88-60.4 4.72-6.48 0.587-13 1.15-19.4 1.69-4.28 0.283-4.28 0.283-8.28 1.65-1.65 0.21-3.3 0.371-4.96 0.508-23.2 2.08-46.1 5.74-69 9.49l-3.87 0.63c-36.4 5.97-72.6 14.5-108 24.4l-2.08 0.573c-22.9 6.07-22.9 6.07-41.9 19.4-5 5-5 5-7.38 7.25-2.76 2.9-4.98 5.94-7.12 9.31-0.389 0.611-0.777 1.22-1.18 1.85-8.38 13.5-10.7 26.2-10.6 41.9l-0.0488 3.72c-0.00942 17.8 5.56 34.1 17.6 47.5l2.75 2.5 2.15 2.09c5.81 5.51 11.7 9.41 18.9 12.9 0.921 0.477 1.84 0.954 2.79 1.45 9.92 4.8 19.3 6.18 30.3 5.99l3.56 0.0215c7.86-0.0565 14.8-1.23 22.4-3.46 1.16-0.309 2.31-0.619 3.5-0.938 2.01-0.61 4.01-1.24 5.99-1.93 8.09-2.82 16.2-4.79 24.6-6.68 2.51-0.581 5.01-1.23 7.5-1.89 11.6-2.94 23.5-5.2 35.3-7.52 0.697-0.137 1.39-0.275 2.11-0.416 1.81-0.355 3.63-0.704 5.44-1.05 2.59-0.457 2.59-0.457 4.63-1.58 3.6-0.535 7.2-0.962 10.8-1.4 2.95-0.388 5.84-0.921 8.75-1.54 7.42-1.53 14.9-2.41 22.4-3.39 1.94-0.254 3.87-0.513 5.8-0.772 1.14-0.15 2.28-0.299 3.46-0.453 2.69-0.303 2.69-0.303 4.73-1.45 1.77-0.257 3.54-0.465 5.31-0.648 1.67-0.175 1.67-0.175 3.37-0.354 1.21-0.123 2.42-0.246 3.67-0.373 1.87-0.194 1.87-0.194 3.78-0.392 2.66-0.274 5.31-0.547 7.97-0.817 2.7-0.274 5.39-0.552 8.09-0.832 27.1-2.82 27.1-2.82 38.4-3.37 2.44-0.0615 2.44-0.0615 4.43-1.21 1.38-0.175 2.76-0.296 4.14-0.389 0.883-0.06 1.77-0.12 2.68-0.182 0.987-0.0605 1.97-0.121 2.99-0.183 1.06-0.0654 2.13-0.131 3.22-0.198 3.65-0.215 7.31-0.416 11-0.611 1.91-0.102 1.91-0.102 3.86-0.207 29.7-1.55 59.5-1.51 89.2-1.48 1.19 4.67e-4 2.38 9.34e-4 3.61 0.00142 6.95 0.00287 13.9 0.0133 20.9 0.0353 2.14 0.00668 4.29 0.0121 6.43 0.0163 19.4 0.045 19.4 0.045 28.6 0.957 3.96 0.384 7.93 0.503 11.9 0.635 1.78 0.0659 3.55 0.133 5.33 0.2 0.922 0.0348 1.84 0.0697 2.79 0.106 33.5 1.31 66.8 4.55 100 8.36 1.09 0.124 2.17 0.248 3.29 0.375 11.9 1.37 23.8 2.9 35.6 4.84 4.49 0.735 8.99 1.4 13.5 2.04 0.722 0.104 1.44 0.208 2.19 0.315 2.9 0.418 5.81 0.835 8.72 1.25 2.18 0.309 4.36 0.624 6.54 0.939 1.26 0.18 2.52 0.36 3.82 0.545 3.34 0.572 6.55 1.31 9.83 2.16 2.69 0.675 5.4 1.17 8.13 1.66 1.13 0.206 2.27 0.411 3.44 0.623 2.33 0.417 4.66 0.834 6.98 1.25 6.85 1.24 13.6 2.67 20.4 4.27 5.07 1.17 10.2 2.03 15.3 2.93 3.35 0.688 6.4 1.66 9.63 2.75 2.71 0.634 5.41 1.24 8.12 1.81 6.84 1.49 13.6 3.07 20.4 4.75 0.808 0.198 1.62 0.395 2.45 0.599 4.75 1.19 9.37 2.59 14 4.17 2.33 0.782 4.67 1.43 7.05 2.04 4.54 1.21 9.02 2.58 13.5 4 6.67 2.12 13.4 4.04 20.1 5.84 4.16 1.12 8.17 2.43 12.2 3.98 3.98 1.52 8.02 2.9 12 4.3 1.26 0.443 1.26 0.443 2.55 0.895 4.09 1.43 8.18 2.83 12.3 4.18 3.33 1.1 6.56 2.34 9.78 3.74 5.47 2.32 11 4.43 16.6 6.46 5.06 1.86 9.96 4.01 14.9 6.23 2.18 0.973 4.37 1.95 6.55 2.92 27.4 12.2 53.8 25.3 80 40 0.952 0.535 1.9 1.07 2.88 1.62 1.59 0.908 3.18 1.83 4.75 2.78 3.36 2.03 4.8 2.7 8.85 2.7 0.33 0.66 0.66 1.32 1 2 13.4 6.34 33.9 5.92 47.9 1.4 5.02-1.82 9.81-4.03 14.6-6.4 0.719-0.343 1.44-0.686 2.18-1.04 1.84-0.908 3.62-1.93 5.38-2.96 0.33-0.99 0.66-1.98 1-3 1.33-0.667 2.67-1.33 4-2 3.95-3.64 7.82-7.66 11-12v-2c0.99-0.33 1.98-0.66 3-1 1.5-2.66 2.77-5.22 4-8 0.343-0.712 0.686-1.42 1.04-2.16 8.09-18 6.57-37.8 3.96-56.8h-2c-0.103-1.02-0.206-2.03-0.312-3.08-2.69-15.3-14.2-28.9-26.5-37.7-4.3-2.93-8.66-5.64-13.2-8.18l-2.51-1.47c-4.45-2.74-4.45-2.74-9.49-3.53-0.33-0.99-0.66-1.98-1-3-1.98-0.939-3.98-1.86-6-2.7-3.75-1.62-7.41-3.41-11.1-5.23-0.706-0.352-1.41-0.704-2.14-1.07-3.38-1.71-6.65-3.44-9.8-5.56-4.29-2.83-9.02-4.71-13.7-6.71-4.49-1.92-8.85-3.99-13.2-6.23-5.95-3.03-12-5.63-18.2-8.1-4.06-1.62-7.95-3.42-11.9-5.4-1.66-0.685-3.33-1.35-5-2-1.86-0.768-3.71-1.54-5.56-2.31-1.05-0.437-2.1-0.874-3.18-1.32-2.12-0.889-4.24-1.79-6.35-2.7-5.46-2.33-10.8-4.31-16.6-5.93-3.1-0.973-5.97-2.3-8.92-3.65-9.59-4.3-19.5-7.48-29.6-10.6-4.01-1.25-7.98-2.51-11.9-4.03-5.52-2.12-11.2-3.57-16.9-5.13-4.57-1.28-9.04-2.67-13.5-4.34-5.62-2.09-11.3-3.61-17.1-5.06-6.44-1.62-12.8-3.32-19.2-5.26-10.1-3.08-20.4-5.47-30.8-7.75-4.7-1.05-9.38-2.15-14.1-3.34-8.54-2.18-17.1-4.07-25.8-5.82-2.24-0.456-4.49-0.919-6.73-1.38-7.88-1.63-7.88-1.63-15.8-2.91-3.09-0.469-3.09-0.469-4.09-1.47-2.24-0.33-4.5-0.613-6.75-0.875-4.86-0.597-9.56-1.36-14.3-2.56-7.12-1.76-14.3-2.65-21.6-3.56-0.92-0.117-1.84-0.233-2.79-0.354-0.828-0.101-1.66-0.203-2.51-0.307-2.04-0.341-2.04-0.341-4.04-1.34-1.71-0.314-3.44-0.584-5.16-0.832-1.09-0.157-2.18-0.314-3.3-0.475-1.19-0.167-2.38-0.333-3.61-0.505-1.23-0.174-2.46-0.348-3.73-0.527-9.89-1.38-19.8-2.64-29.7-3.85-0.689-0.0844-1.38-0.169-2.09-0.256-7.7-0.941-15.4-1.78-23.1-2.3-2.28-0.253-2.28-0.253-4.28-1.25-1.7-0.224-3.41-0.395-5.12-0.541-1.08-0.0936-2.15-0.187-3.26-0.284-1.77-0.147-1.77-0.147-3.57-0.297-1.22-0.104-2.45-0.209-3.71-0.316-3.32-0.281-6.64-0.557-9.96-0.83-2.07-0.17-4.13-0.341-6.2-0.512-29.8-2.47-59.6-4.19-89.5-4.88-1.23-0.0313-2.46-0.0625-3.73-0.0947-1.08-0.0239-2.15-0.0479-3.26-0.0725-2.66-0.174-2.66-0.174-5.66-1.17-2.59-0.112-5.15-0.168-7.74-0.177-0.793-0.00647-1.59-0.0129-2.4-0.0196-2.66-0.0196-5.31-0.0312-7.97-0.0417-0.923-0.0048-1.85-0.00961-2.8-0.0146-7.1-0.0365-14.2-0.0516-21.3-0.0597-1.04-0.00159-2.09-0.00318-3.16-0.00483-29.2-0.0379-58.2 0.404-87.3 2.13zm-568 181 1 2zm-5 21 1 2zm-5 23 1 2zm-5 28 1 4zm-1 8 1 2zm562 14.8c-4.94 0.394-9.88 0.762-14.8 1.13-25.3 1.92-50.4 5.36-75.5 9.19-1.26 0.192-1.26 0.192-2.55 0.388-8.25 1.26-16.4 2.58-24.6 4.49-1.37 0.182-2.75 0.349-4.12 0.5-3.85 0.399-3.85 0.399-7.38 1.5-2.74 0.782-5.08 1.25-7.88 1.56-3.43 0.0354-3.43 0.0354-4.62 1.44-2.52 0.519-5.03 0.993-7.56 1.44-6.64 1.21-13.1 2.58-19.6 4.5-4.19 1.16-8.4 2.09-12.6 3-5.71 1.24-11.3 2.58-16.9 4.35-5.38 1.69-10.8 3.14-16.3 4.43-6.39 1.5-12.1 3.38-18 6.29l-3.12 1.48c-6.48 3-6.48 3-11.9 7.52-1.25 1.02-2.5 2.04-3.75 3.06-12 10.5-19.2 26.6-20.4 42.4-0.542 11.6 0.472 21.7 4.82 32.6l1.35 3.41c0.338 0.834 0.675 1.67 1.02 2.53h2c0.248 0.888 0.495 1.78 0.75 2.69 4.44 11.8 17.2 19 27.9 24.3 8.49 3.81 16 4.22 25.2 4.23 1.05 0.0122 2.1 0.0245 3.18 0.0371 6.05 0.0114 11.1-0.491 16.9-2.22 1.24-0.318 2.47-0.637 3.75-0.965 7.88-2.05 7.88-2.05 15.6-4.54 4.9-1.7 9.94-2.79 15-3.95 4.77-1.09 9.49-2.31 14.2-3.62 5.86-1.59 11.7-2.8 17.7-3.86 3.91-0.701 7.74-1.54 11.6-2.57 7.58-1.98 15.3-3 23-4.17 5.13-0.792 10.2-1.69 15.3-2.81 7.39-1.6 14.8-2.35 22.3-3.09 2.51-0.248 5.02-0.499 7.53-0.754 1.1-0.108 2.2-0.215 3.33-0.326 2.61-0.209 2.61-0.209 4.64-1.36 1.99-0.211 3.99-0.369 6-0.5 1.2-0.0825 2.4-0.165 3.63-0.25 1.26-0.0825 2.51-0.165 3.81-0.25 2.48-0.163 4.96-0.33 7.43-0.5 1.1-0.0722 2.21-0.144 3.34-0.219 2.87-0.187 2.87-0.187 5.79-1.28 2.21-0.209 4.42-0.368 6.63-0.5 0.669-0.0406 1.34-0.0812 2.03-0.123 1.43-0.0859 2.86-0.17 4.29-0.252 2.09-0.12 4.18-0.247 6.27-0.375 4.59-0.276 9.19-0.516 13.8-0.75 0.867-0.0456 1.73-0.0911 2.63-0.138 19.1-0.98 38.3-1.06 57.5-1.05 2.57 0.00119 5.14 6.43e-4 7.7-1.14e-5 23.1 0.00127 46.2 0.249 69.2 1.92 3.02 0.202 6.04 0.375 9.06 0.521 0.866 0.0419 1.73 0.0839 2.63 0.127 1.69 0.0799 3.38 0.156 5.08 0.229 3.28 0.156 6.08 0.347 9.21 1.39 2.11 0.206 4.23 0.366 6.35 0.5 1.24 0.0825 2.49 0.165 3.77 0.25 2.63 0.167 5.27 0.334 7.9 0.5 1.24 0.0825 2.49 0.165 3.77 0.25 1.14 0.0722 2.29 0.144 3.47 0.219 2.75 0.281 2.75 0.281 4.75 1.28 2.06 0.269 4.12 0.489 6.19 0.684l3.81 0.373c2.64 0.252 5.28 0.501 7.91 0.75 6.28 0.616 12.4 1.34 18.6 2.68 6.27 1.28 12.6 2.08 19 3.02 5.59 0.839 11.1 1.78 16.6 3.07 2.73 0.609 5.48 0.993 8.25 1.37 5.27 0.781 10.3 1.93 15.5 3.28 3.63 0.883 7.29 1.56 11 2.22 6.32 1.13 12.5 2.59 18.7 4.22 3.66 0.942 7.21 1.64 11 1.97 1.18 0.124 2.35 0.248 3.56 0.375 0.33 0.66 0.66 1.32 1 2 2.92 0.756 5.8 1.41 8.75 2 4.95 1.01 9.59 2 14.2 4 8.16 2.54 16.4 4.67 24.8 6.6 3.25 0.779 5.42 1.52 8.24 3.4 2.17 0.698 4.36 1.34 6.56 1.94 1.25 0.348 2.5 0.696 3.79 1.05 1.21 0.333 2.41 0.665 3.65 1.01 5.69 1.59 10.7 3.36 16 6 1.66 0.585 3.33 1.14 5 1.69 6.11 1.98 12.1 4.13 18.2 6.31 0.926 0.332 1.85 0.664 2.81 1.01 5.08 1.85 10.1 3.83 15 6.08 2.18 0.975 4.38 1.86 6.6 2.72 10.7 4.25 21.2 8.97 31.5 14.2 3.93 1.99 7.91 3.86 11.9 5.74 21.3 10.1 42.1 20.9 62.1 33.5 14.8 9.3 31.9 12.6 49.3 9.33 9.9-2.45 17.9-7.13 25.7-13.6 0.99-0.66 1.98-1.32 3-2v-2c0.99-0.33 1.98-0.66 3-1 0.702-1.32 1.37-2.65 2-4 0.454-0.433 0.908-0.866 1.38-1.31 9.53-9.9 11.8-24.6 11.8-37.8 6.45e-4 -0.724 0.00129-1.45 0.00195-2.19-0.0704-7.35-1.01-14.5-2.19-21.7h-2c-0.206-1.28-0.412-2.56-0.625-3.88-2.68-11.8-11.8-22.1-21.4-29.1-2.32-1.37-4.64-2.7-7-4-1.23-0.71-2.45-1.42-3.68-2.14-0.6-0.348-1.2-0.696-1.82-1.05-1.23-0.716-2.47-1.43-3.7-2.16-3.2-2-3.2-2-6.81-2.65v-2c-4.45-1.48-4.45-1.48-9-3v-2c-0.536-0.268-1.07-0.536-1.62-0.812-0.784-0.392-1.57-0.784-2.38-1.19-0.897-0.447-1.79-0.895-2.72-1.36-2.48-1.24-4.96-2.5-7.44-3.76-0.717-0.363-1.43-0.726-2.17-1.1-1.44-0.729-2.88-1.46-4.31-2.2-3.5-1.92-3.5-1.92-7.36-2.59v-2c-0.967-0.447-1.93-0.895-2.93-1.36-1.32-0.611-2.63-1.22-3.95-1.83-0.632-0.292-1.26-0.584-1.91-0.885-3.64-1.69-7.25-3.44-10.8-5.26-5.81-2.92-11.7-5.66-17.6-8.38-1.84-0.852-3.68-1.71-5.52-2.56-3.42-1.58-6.83-3.16-10.3-4.73-1.3-0.595-1.3-0.595-2.62-1.2-5.62-2.54-11.3-4.57-17.1-6.55-3.01-1.16-5.49-2.56-8.23-4.25-2.15-0.864-2.15-0.864-4.31-1.5-5.9-1.88-11.6-4.07-17.4-6.38-11.2-4.49-22.5-8.61-33.9-12.4-2.34-0.776-4.68-1.56-7.01-2.34-9.07-3.03-18.2-5.81-27.4-8.37-4.41-1.29-8.8-2.62-13.2-4-5.42-1.7-10.8-3.29-16.3-4.44-7.2-1.61-14.3-3.69-21.4-5.63-6.27-1.7-12.5-3.33-18.9-4.43-2.15-0.492-2.15-0.492-4.36-1.45-3.85-1.43-7.73-1.94-11.8-2.54-8.35-1.23-8.35-1.23-11.4-2.5-4.01-1.57-8.18-1.93-12.4-2.5-9.25-1.24-9.25-1.24-13.4-2.47-5.61-1.56-11.3-2.23-17.1-3.03-13.2-1.85-13.2-1.85-18.2-3.03-5.56-1.31-11.2-1.88-16.9-2.54-2.14-0.248-4.29-0.499-6.43-0.754-0.938-0.108-1.88-0.215-2.84-0.326-2.29-0.357-2.29-0.357-4.29-1.36-2-0.281-4-0.512-6.01-0.719-1.23-0.127-2.45-0.254-3.72-0.385-1.31-0.131-2.61-0.261-3.96-0.396-1.33-0.136-2.66-0.272-3.99-0.408-7.95-0.799-15.9-1.49-23.9-1.88-2.46-0.211-2.46-0.211-4.46-1.21-1.5-0.204-3.01-0.356-4.52-0.481-0.962-0.08-1.92-0.16-2.92-0.242-6.15-0.472-12.3-0.926-18.4-1.34-0.678-0.0457-1.36-0.0914-2.06-0.138-28-1.86-56-2.22-84.1-2.23-3.19-0.00266-6.39-0.0109-9.58-0.0203-28.1-0.0675-56 0.998-84 3.26zm-566 13.2v5h1v-5h-1zm-1 13 1 2zm0 153 1 2zm11 77 1 3zm502 10.2c-1.15 0.137-2.3 0.274-3.49 0.415-2.88 0.345-2.88 0.345-5.81 1.42-1.71 0.155-3.42 0.275-5.12 0.375-5.73 0.439-11.3 1.35-16.9 2.4-6.82 1.25-13.7 2.22-20.5 3.14-4.74 0.647-9.35 1.5-14 2.57-5.7 1.23-11.5 2.03-17.2 2.93-4.96 0.799-9.82 1.71-14.7 2.97-5.23 1.36-10.5 2.47-15.8 3.52-0.83 0.166-1.66 0.331-2.51 0.502-3.44 0.686-6.89 1.37-10.3 2.04-16.2 3.17-31.5 6.82-43.8 18.6-1.19 2.05-1.19 2.05-2 4l-1.36 1.26c-6.08 6.46-9.17 16.5-10.2 25.1-0.438 3.62-0.438 3.62-1.44 4.62-0.132 15.3 5.26 29.7 15.6 40.9 11.7 10.6 26.1 14.1 41.5 13.5 7.52-0.471 14.6-2.43 21.9-4.4 1.81-0.395 3.62-0.774 5.44-1.12l2.27-0.441c1.69-0.321 3.39-0.641 5.08-0.961l2.77-0.535 2.5-0.473c1.93-0.286 1.93-0.286 2.93-1.46 2.17-0.419 4.35-0.781 6.53-1.12 0.663-0.105 1.33-0.21 2.01-0.318 2.13-0.337 4.27-0.668 6.4-0.999 11.9-1.84 11.9-1.84 23.7-4.08 4.65-0.936 9.33-1.7 14-2.48 1.56-0.262 1.56-0.262 3.16-0.529 7.44-1.23 14.9-2.25 22.4-3.08 2.79-0.231 2.79-0.231 4.85-1.39 1.64-0.208 3.29-0.368 4.94-0.5 0.977-0.0825 1.95-0.165 2.96-0.25 2.07-0.167 4.14-0.333 6.2-0.5 0.977-0.0825 1.95-0.165 2.96-0.25 0.898-0.0722 1.8-0.144 2.72-0.219 2.25-0.162 2.25-0.162 4.21-1.28 2.38-0.334 4.75-0.619 7.14-0.867 0.708-0.0749 1.42-0.15 2.15-0.227 40.2-4.22 80.2-6.41 121-6.23 4.16 0.0135 8.32 0.00814 12.5 0.00314 19.6-0.0178 39.1 0.132 58.6 1.21 0.716 0.0387 1.43 0.0774 2.17 0.117 8.55 0.477 17 1.34 25.5 2.53 3.9 0.54 7.78 0.933 11.7 1.27 1.4 0.126 2.8 0.251 4.2 0.377 2.14 0.188 4.27 0.374 6.41 0.559 2.11 0.185 4.22 0.374 6.33 0.564 1.23 0.108 2.47 0.215 3.74 0.326 2.93 0.357 2.93 0.357 4.93 1.36 2.54 0.401 5.07 0.758 7.61 1.09 1.57 0.211 3.15 0.422 4.72 0.633 2.47 0.327 4.94 0.652 7.41 0.974 8.87 1.16 17.6 2.45 26.3 4.58 2.94 0.717 5.88 1.34 8.85 1.93 10.1 2.02 20 4.18 29.9 7.05 4.55 1.32 9.1 2.41 13.7 3.36 4.51 0.926 8.79 2.03 13.1 3.57 2.77 0.969 5.57 1.83 8.38 2.68 1.11 0.34 2.22 0.681 3.36 1.03 2.46 0.751 4.91 1.5 7.37 2.25 9.15 2.81 18.2 5.88 27.2 9.12 1.92 0.689 3.85 1.36 5.78 2.04 9.79 3.44 19.3 7.34 28.8 11.6 3.01 1.33 6.05 2.61 9.08 3.9 11.7 4.99 23.1 10.5 34.4 16.2 2.58 1.3 5.17 2.58 7.77 3.84 12 5.86 23.6 12.5 35.2 19.2 0.758 0.435 1.52 0.869 2.3 1.32 0.685 0.393 1.37 0.786 2.07 1.19 0.953 0.546 0.953 0.546 1.93 1.1 1.62 0.931 3.24 1.87 4.86 2.8 12.5 6.97 25.4 9.5 39.3 5.62 2.87-0.943 5.7-1.94 8.52-3.03v-2c1.13-0.268 2.27-0.536 3.44-0.812 1.18-0.392 2.35-0.784 3.56-1.19 0.33-0.99 0.66-1.98 1-3 0.959-0.464 0.959-0.464 1.94-0.938 2.55-1.31 2.84-2.55 4.06-5.06 0.99-0.33 1.98-0.66 3-1 0.165-0.66 0.33-1.32 0.5-2 0.165-0.66 0.33-1.32 0.5-2 0.99-0.33 1.98-0.66 3-1 5.08-8.9 5.5-18.7 5.56-28.7 0.0144-1.13 0.0288-2.25 0.0437-3.42-0.158-13.3-4.46-25.5-13.8-35.1-3.43-3.49-3.43-3.49-7.84-4.76v-2c-0.62-0.329-1.24-0.657-1.88-0.996-5.67-3.05-11.2-6.24-16.7-9.57-8.09-4.88-16.3-9.42-24.7-13.7-0.695-0.354-1.39-0.708-2.11-1.07-3.17-1.59-6.12-2.91-9.58-3.68v-2c-0.666-0.303-1.33-0.606-2.02-0.918-1.95-0.885-3.89-1.77-5.84-2.66-1.99-0.902-3.98-1.8-5.97-2.7-5.28-2.38-10.5-4.87-15.6-7.48-6.65-3.29-13.5-6.24-20.2-9.23-1.58-0.709-3.16-1.43-4.73-2.17-6.17-2.89-12.4-5.37-18.8-7.71-3.13-1.14-6.18-2.33-9.23-3.67-3.79-1.59-7.58-2.81-11.5-3.98-5.17-1.54-10-3.37-15-5.5-2.58-0.846-5.15-1.66-7.75-2.44-4.71-1.43-9.34-2.93-13.9-4.69-5-1.87-10.1-3.03-15.3-4.17-3.21-0.748-6.24-1.74-9.34-2.82-6.81-2.23-13.8-4.02-20.7-5.88-1.03-0.28-2.07-0.559-3.13-0.848-7.05-1.83-14.2-3.25-21.3-4.62-4.46-0.863-8.84-1.85-13.2-2.99-7.08-1.8-14.2-2.98-21.4-4.16-2.59-0.426-5.17-0.856-7.76-1.29-1.13-0.185-2.26-0.37-3.42-0.561-2.7-0.525-2.7-0.525-4.7-1.52-1.36-0.205-2.73-0.366-4.1-0.5-0.801-0.0825-1.6-0.165-2.43-0.25-1.7-0.167-3.39-0.334-5.09-0.5-6.29-0.648-6.29-0.648-7.39-1.75-1.68-0.216-3.37-0.371-5.06-0.5-1.03-0.0825-2.05-0.165-3.11-0.25l-3.27-0.25c-2.12-0.163-4.25-0.329-6.37-0.5-0.947-0.0722-1.89-0.144-2.87-0.219-2.32-0.281-2.32-0.281-4.32-1.28-2.52-0.284-5.03-0.519-7.56-0.719-0.747-0.0628-1.49-0.126-2.26-0.19-2.39-0.201-4.78-0.397-7.17-0.591-3.15-0.256-6.29-0.517-9.44-0.781-0.727-0.0573-1.45-0.115-2.2-0.174-5.13-0.432-5.13-0.432-7.36-1.55-1.39-0.146-2.79-0.236-4.19-0.297-1.32-0.0586-1.32-0.0586-2.66-0.118-0.967-0.0371-1.93-0.0742-2.93-0.112-1.02-0.0413-2.04-0.0827-3.08-0.125-13.2-0.505-26.4-0.71-39.6-0.91-1.34-0.0207-2.69-0.0414-4.03-0.0622-7.77-0.119-15.5-0.229-23.3-0.332-2.75-0.037-5.5-0.077-8.24-0.119-52.4-0.764-105 3.06-157 9.24z" fill="#FBFCFE"/>
<path transform="translate(1596,780)" d="m0 0h1v19h-1v-19z" fill="#000100"/>
<path transform="translate(718,421)" d="m0 0h10v1h-10v-1z" fill="#000100"/>
<path transform="translate(1596,818)" d="m0 0h1v6h-1v-6z" fill="#000100"/>
<path transform="translate(335,1040)" d="m0 0h1v5h-1v-5z" fill="#000100"/>
<path transform="translate(759,958)" d="m0 0h5v1h-5v-1z" fill="#000100"/>
<path transform="translate(776,700)" d="m0 0c3 1 3 1 3 1z" fill="#000100"/>
<path transform="translate(860,430)" d="m0 0 2 1z" fill="#000100"/>
<path transform="translate(838,428)" d="m0 0 2 1z" fill="#000100"/>
</svg>
