<svg width="16" height="16" viewBox="0 0 16 16" fill="none" xmlns="http://www.w3.org/2000/svg">
<g clip-path="url(#clip0_696_8925)">
<path d="M8 3.5C7.22917 3.52083 6.58333 3.79167 6.0625 4.3125C5.54167 4.83333 5.27083 5.47917 5.25 6.25C5.27083 7.02083 5.54167 7.66667 6.0625 8.1875C6.58333 8.70833 7.22917 8.97917 8 9C8.77083 8.97917 9.41667 8.70833 9.9375 8.1875C10.4583 7.66667 10.7292 7.02083 10.75 6.25C10.7292 5.47917 10.4583 4.83333 9.9375 4.3125C9.41667 3.79167 8.77083 3.52083 8 3.5ZM8 7.5C7.64583 7.5 7.35417 7.375 7.125 7.125C6.875 6.89583 6.75 6.60417 6.75 6.25C6.75 5.89583 6.875 5.60417 7.125 5.375C7.35417 5.125 7.64583 5 8 5C8.35417 5 8.64583 5.125 8.875 5.375C9.125 5.60417 9.25 5.89583 9.25 6.25C9.25 6.60417 9.125 6.89583 8.875 7.125C8.64583 7.375 8.35417 7.5 8 7.5ZM8 0C6.5 0.020833 5.15625 0.385417 3.96875 1.09375C2.76042 1.80208 1.80208 2.76042 1.09375 3.96875C0.385417 5.15625 0.0208333 6.5 0 8C0.0208333 9.5 0.385417 10.8438 1.09375 12.0312C1.80208 13.2396 2.76042 14.1979 3.96875 14.9062C5.15625 15.6146 6.5 15.9792 8 16C9.5 15.9792 10.8438 15.6146 12.0312 14.9062C13.2396 14.1979 14.1979 13.2396 14.9062 12.0312C15.6146 10.8438 15.9792 9.5 16 8C15.9792 6.5 15.6146 5.15625 14.9062 3.96875C14.1979 2.76042 13.2396 1.80208 12.0312 1.09375C10.8438 0.385417 9.5 0.020833 8 0ZM8 14.5C6.52083 14.4792 5.22917 14.0417 4.125 13.1875C4.39583 12.6667 4.77083 12.2604 5.25 11.9688C5.72917 11.6562 6.27083 11.5 6.875 11.5H9.125C9.72917 11.5 10.2708 11.6562 10.75 11.9688C11.2292 12.2604 11.6146 12.6667 11.9062 13.1875C10.7812 14.0417 9.47917 14.4792 8 14.5ZM13 12.1562C12.5833 11.4896 12.0312 10.9583 11.3438 10.5625C10.6771 10.1875 9.9375 10 9.125 10H6.875C6.0625 10 5.32292 10.1875 4.65625 10.5625C3.98958 10.9375 3.4375 11.4583 3 12.125C2.04167 10.9792 1.54167 9.60417 1.5 8C1.54167 6.16667 2.17708 4.63542 3.40625 3.40625C4.63542 2.17708 6.16667 1.54167 8 1.5C9.83333 1.54167 11.3646 2.17708 12.5938 3.40625C13.8229 4.63542 14.4583 6.16667 14.5 8C14.4583 9.60417 13.9583 10.9896 13 12.1562Z" fill="black" style="fill:black;fill-opacity:1;"/>
</g>
<defs>
<clipPath id="clip0_696_8925">
<rect width="16" height="16" fill="white" style="fill:white;fill-opacity:1;" transform="matrix(1 0 0 -1 0 16)"/>
</clipPath>
</defs>
</svg>
