<svg width="328" height="59" viewBox="0 0 328 59" fill="none" xmlns="http://www.w3.org/2000/svg">
<g clip-path="url(#clip0_647_12359)">
<path d="M24.1347 23.043H18.179V45.3691C18.179 52.7106 14.6033 53.4928 12.3007 53.4928C8.68081 53.4928 6.7214 51.2021 6.41144 46.7882H0.5C0.964945 53.761 5.88007 58.8899 12.3007 58.8899C22.5959 58.8899 24.1347 50.4199 24.1347 45.3691V23.043Z" fill="#011740" style="fill:#011740;fill:color(display-p3 0.0039 0.0902 0.2510);fill-opacity:1;"/>
<path d="M27.0234 23.043V58.8899H49.5068V52.9005H32.9681V23.043H27.0234Z" fill="#011740" style="fill:#011740;fill:color(display-p3 0.0039 0.0902 0.2510);fill-opacity:1;"/>
<path d="M44.8795 23.0432L35.3482 11.5449L30.8869 6.29297L27.0234 10.9862L37.0197 23.0432H44.8795Z" fill="#0451DD" style="fill:#0451DD;fill:color(display-p3 0.0157 0.3176 0.8667);fill-opacity:1;"/>
<path d="M14.1612 23.0413L29.4712 4.59261L25.5966 0L6.37891 23.0413H14.1612Z" fill="#011740" style="fill:#011740;fill:color(display-p3 0.0039 0.0902 0.2510);fill-opacity:1;"/>
<path d="M77.8019 40.1503C77.8019 43.9942 75.3665 47.0112 68.968 47.0112H57.4551V23.4336H67.5842C74.3481 23.4336 76.4846 26.1378 76.4846 29.9147C76.4846 32.3395 74.8019 34.0379 74.2816 34.4179C76.551 35.5576 77.7909 37.6137 77.7909 40.1391L77.8019 40.1503ZM71.1377 30.6522C71.1377 29.0542 70.1082 28.2944 67.9385 28.2944H63.0898V33.2222H67.9385C70.3739 33.2222 71.1377 32.4959 71.1377 30.6522ZM68.3259 37.5578H63.1008V42.1393H68.3259C70.5953 42.1393 71.7244 41.3794 71.7244 39.8486C71.7244 38.1165 70.551 37.5578 68.3259 37.5578Z" fill="#011740" style="fill:#011740;fill:color(display-p3 0.0039 0.0902 0.2510);fill-opacity:1;"/>
<path d="M87.3886 47.0112H81.7539V23.4336H87.3886V47.0112Z" fill="#011740" style="fill:#011740;fill:color(display-p3 0.0039 0.0902 0.2510);fill-opacity:1;"/>
<path d="M110.514 23.4336V28.7078H98.248V32.7641H108.488V37.6919H98.248V41.7482H110.514V47.0224H92.6133V23.4448H110.514V23.4336Z" fill="#011740" style="fill:#011740;fill:color(display-p3 0.0039 0.0902 0.2510);fill-opacity:1;"/>
<path d="M137.89 47.0112H132.222L120.41 32.5853V47.0112H114.742V23.4336H120.41L132.222 37.826V23.4336H137.89V47.0112Z" fill="#011740" style="fill:#011740;fill:color(display-p3 0.0039 0.0902 0.2510);fill-opacity:1;"/>
<path d="M160.705 23.4336V28.7078H148.439V32.7641H158.679V37.6919H148.439V41.7482H160.705V47.0224H142.805V23.4448H160.705V23.4336Z" fill="#011740" style="fill:#011740;fill:color(display-p3 0.0039 0.0902 0.2510);fill-opacity:1;"/>
<path d="M183.378 30.8862H177.776C177.776 29.7017 176.404 28.115 174.001 28.115C172.319 28.115 170.26 28.8748 170.26 30.2269C170.26 31.3667 171.81 31.8248 175.108 32.6853C178.784 33.6574 183.976 34.9089 183.976 40.1049C183.976 44.6082 180.057 47.4241 174.599 47.4241C167.282 47.4241 164.227 42.4292 164.227 38.7529H169.828C169.828 38.7529 170.271 42.4962 174.909 42.4962C177.422 42.4962 178.341 41.4235 178.341 40.4178C178.341 38.9317 176.382 38.4065 174.223 37.8924C170.714 37.0544 164.57 35.747 164.57 30.5063C164.57 26.2042 168.765 23.0195 174.09 23.0195C180.168 23.0195 183.4 27.2099 183.4 30.8862H183.378Z" fill="#011740" style="fill:#011740;fill:color(display-p3 0.0039 0.0902 0.2510);fill-opacity:1;"/>
<path d="M215.847 32.2724C215.847 35.6694 214.197 38.5523 211.695 39.9044L216.5 47.0112H209.492L205.983 41.1559H201.865V47.0112H196.23V23.4336H207.533C212.271 23.4336 215.847 27.1434 215.847 32.2724ZM201.865 28.6967V35.8705H206.714C208.64 35.8705 210.179 34.2391 210.179 32.2612C210.179 30.2834 208.629 28.6855 206.747 28.6855H201.865V28.6967Z" fill="#011740" style="fill:#011740;fill:color(display-p3 0.0039 0.0902 0.2510);fill-opacity:1;"/>
<path d="M237.932 43.3349H226.662L225.113 47.0112H219.135L229.131 23.4336H235.419L245.448 47.0112H239.437L237.921 43.3349H237.932ZM235.972 38.6864L232.33 29.8811L228.622 38.6864H235.972Z" fill="#011740" style="fill:#011740;fill:color(display-p3 0.0039 0.0902 0.2510);fill-opacity:1;"/>
<path d="M254.902 47.0112H249.268V23.4336H254.902V47.0112Z" fill="#011740" style="fill:#011740;fill:color(display-p3 0.0039 0.0902 0.2510);fill-opacity:1;"/>
<path d="M282.566 41.2889C280.474 44.8311 276.588 47.4235 271.64 47.4235C264.323 47.4235 258.998 42.0152 258.998 35.0425C258.998 28.4832 264.323 23.0078 271.64 23.0078C276.622 23.0078 280.54 25.3656 282.633 28.9078L277.862 31.7125C276.766 29.5671 274.596 28.1368 271.64 28.1368C267.555 28.1368 264.699 31.1538 264.699 35.0425C264.699 38.9311 267.555 42.0822 271.64 42.0822C274.529 42.0822 276.655 40.5961 277.784 38.5065L282.555 41.2777L282.566 41.2889Z" fill="#011740" style="fill:#011740;fill:color(display-p3 0.0039 0.0902 0.2510);fill-opacity:1;"/>
<path d="M304.24 23.4336V28.7078H291.975V32.7641H302.214V37.6919H291.975V41.7482H304.24V47.0224H286.34V23.4448H304.24V23.4336Z" fill="#011740" style="fill:#011740;fill:color(display-p3 0.0039 0.0902 0.2510);fill-opacity:1;"/>
<path d="M326.913 30.8862H321.312C321.312 29.7017 319.939 28.115 317.537 28.115C315.854 28.115 313.795 28.8748 313.795 30.2269C313.795 31.3667 315.345 31.8248 318.644 32.6853C322.319 33.6574 327.511 34.9089 327.511 40.1049C327.511 44.6082 323.592 47.4241 318.134 47.4241C310.817 47.4241 307.762 42.4292 307.762 38.7529H313.363C313.363 38.7529 313.806 42.4962 318.444 42.4962C320.957 42.4962 321.876 41.4235 321.876 40.4178C321.876 38.9317 319.917 38.4065 317.758 37.8924C314.249 37.0544 308.105 35.747 308.105 30.5063C308.105 26.2042 312.3 23.0195 317.625 23.0195C323.703 23.0195 326.935 27.2099 326.935 30.8862H326.913Z" fill="#011740" style="fill:#011740;fill:color(display-p3 0.0039 0.0902 0.2510);fill-opacity:1;"/>
<path d="M58.7501 58.3716H63.145V58.8856H58.1855V51.4883H58.7391V58.3716H58.7501Z" fill="#011740" style="fill:#011740;fill:color(display-p3 0.0039 0.0902 0.2510);fill-opacity:1;"/>
<path d="M75.5112 58.8856H74.9245L74.0056 56.5614H70.5075L69.5887 58.8856H69.002L71.9355 51.4883H72.5887L75.5222 58.8856H75.5112ZM70.6957 56.0474H73.7953L72.2344 52.0358L70.6957 56.0474Z" fill="#011740" style="fill:#011740;fill:color(display-p3 0.0039 0.0902 0.2510);fill-opacity:1;"/>
<path d="M84.4447 51.3784C85.1199 51.3784 85.6845 51.5125 86.1495 51.7806C86.6144 52.0488 86.9686 52.4623 87.2122 53.0098L86.7472 53.3674C86.5369 52.8422 86.2269 52.4623 85.8395 52.2388C85.452 52.0041 84.9649 51.8924 84.4004 51.8924C83.9686 51.8924 83.5923 51.9594 83.2934 52.1047C82.9945 52.2388 82.762 52.4287 82.5959 52.6522C82.441 52.8757 82.3524 53.1327 82.3524 53.4232C82.3524 53.7696 82.4631 54.049 82.6845 54.2725C82.9059 54.496 83.3155 54.6748 83.9022 54.8089L85.3524 55.1217C86.072 55.2782 86.5812 55.5017 86.869 55.8034C87.1568 56.0939 87.3118 56.4738 87.3118 56.9431C87.3118 57.3454 87.2011 57.703 86.9576 58.0159C86.714 58.3287 86.4041 58.5746 85.9945 58.7422C85.5849 58.9098 85.1089 58.9992 84.5664 58.9992C84.024 58.9992 83.5701 58.9321 83.1605 58.7757C82.7509 58.6304 82.4078 58.4293 82.1199 58.1611C81.8432 57.8929 81.6328 57.5801 81.5 57.2001L81.9871 56.8202C82.0867 57.1666 82.2638 57.4683 82.5074 57.7253C82.7509 57.9712 83.0498 58.1611 83.4041 58.2952C83.7583 58.4293 84.1568 58.4852 84.5886 58.4852C85.0203 58.4852 85.3745 58.4293 85.6956 58.3064C86.0166 58.1946 86.2712 58.0159 86.4594 57.7924C86.6365 57.5689 86.7362 57.2895 86.7362 56.9655C86.7362 56.6414 86.6255 56.3844 86.4041 56.1721C86.1827 55.9598 85.7952 55.7922 85.2417 55.6804L83.7362 55.3452C83.2712 55.2446 82.8948 55.0994 82.607 54.9318C82.3192 54.7642 82.1089 54.5518 81.976 54.306C81.8432 54.0602 81.7768 53.792 81.7768 53.4791C81.7768 53.0992 81.8875 52.7528 82.0978 52.4287C82.3081 52.1047 82.6181 51.8589 83.0166 51.6577C83.4151 51.4678 83.8911 51.3672 84.4336 51.3672L84.4447 51.3784Z" fill="#011740" style="fill:#011740;fill:color(display-p3 0.0039 0.0902 0.2510);fill-opacity:1;"/>
<path d="M110.126 51.4883V58.8856H109.595V53.3656L109.662 52.0246L106.983 58.8856H106.473L103.794 52.0246H103.783L103.85 53.3656V58.8856H103.318V51.4883H104.149L106.363 57.0977L106.728 58.2263L107.082 57.1089L109.296 51.4883H110.126Z" fill="#011740" style="fill:#011740;fill:color(display-p3 0.0039 0.0902 0.2510);fill-opacity:1;"/>
<path d="M117.832 58.8856V51.4883H122.847V52.0023H118.397V54.8629H121.917V55.3881H118.397V58.3716H123.035V58.8856H117.843H117.832Z" fill="#011740" style="fill:#011740;fill:color(display-p3 0.0039 0.0902 0.2510);fill-opacity:1;"/>
<path d="M133.607 51.4883V56.4496C133.607 57.243 133.407 57.8688 132.998 58.3269C132.588 58.7851 132.012 59.0085 131.271 59.0085C130.75 59.0085 130.33 58.908 129.987 58.6957C129.655 58.4945 129.411 58.204 129.278 57.8352C129.145 57.4665 129.112 57.0307 129.19 56.539L129.71 56.4161C129.621 57.0978 129.71 57.6118 129.965 57.9693C130.219 58.3157 130.651 58.4945 131.26 58.4945C131.902 58.4945 132.367 58.3046 132.632 57.9246C132.909 57.5447 133.042 57.0084 133.042 56.3267V51.4883H133.596H133.607Z" fill="#011740" style="fill:#011740;fill:color(display-p3 0.0039 0.0902 0.2510);fill-opacity:1;"/>
<path d="M144.134 51.3789C144.832 51.3789 145.429 51.5353 145.939 51.8482C146.448 52.1611 146.835 52.5969 147.101 53.1668C147.378 53.7367 147.511 54.4071 147.511 55.2005C147.511 55.9939 147.378 56.6643 147.101 57.2342C146.824 57.8041 146.437 58.2399 145.939 58.5528C145.429 58.8657 144.832 59.0221 144.134 59.0221C143.437 59.0221 142.85 58.8657 142.341 58.5528C141.832 58.2399 141.444 57.8041 141.167 57.2342C140.891 56.6643 140.758 55.9939 140.758 55.2005C140.758 54.4071 140.891 53.7367 141.167 53.1668C141.444 52.5969 141.832 52.1611 142.341 51.8482C142.85 51.5353 143.448 51.3789 144.134 51.3789ZM144.134 51.8929C143.559 51.8929 143.071 52.027 142.651 52.2952C142.23 52.5634 141.909 52.9433 141.677 53.435C141.444 53.9266 141.333 54.5189 141.333 55.2005C141.333 55.8821 141.444 56.4632 141.677 56.966C141.909 57.4689 142.23 57.8376 142.651 58.1058C143.071 58.374 143.559 58.5081 144.134 58.5081C144.71 58.5081 145.208 58.374 145.629 58.1058C146.038 57.8376 146.37 57.4577 146.592 56.966C146.824 56.4744 146.935 55.8821 146.935 55.2005C146.935 54.5189 146.824 53.9378 146.592 53.435C146.359 52.9433 146.038 52.5634 145.629 52.2952C145.219 52.027 144.721 51.8929 144.134 51.8929Z" fill="#011740" style="fill:#011740;fill:color(display-p3 0.0039 0.0902 0.2510);fill-opacity:1;"/>
<path d="M157.462 51.4883C158.192 51.4883 158.779 51.6782 159.211 52.047C159.642 52.4157 159.864 52.9298 159.864 53.589C159.864 54.2483 159.642 54.7512 159.211 55.1087C158.779 55.4663 158.192 55.6563 157.45 55.6563L157.395 55.6898H155.292V58.8968H154.738V51.4995H157.462V51.4883ZM157.45 55.1534C158.048 55.1534 158.502 55.0193 158.812 54.7512C159.122 54.483 159.288 54.0919 159.288 53.589C159.288 53.0862 159.133 52.6839 158.812 52.4157C158.502 52.1476 158.048 52.0023 157.45 52.0023H155.292V55.1534H157.45ZM157.882 55.254L160.251 58.8856H159.598L157.417 55.5669L157.882 55.254Z" fill="#011740" style="fill:#011740;fill:color(display-p3 0.0039 0.0902 0.2510);fill-opacity:1;"/>
<path d="M167.248 58.8856V51.4883H172.263V52.0023H167.813V54.8629H171.333V55.3881H167.813V58.3716H172.451V58.8856H167.259H167.248Z" fill="#011740" style="fill:#011740;fill:color(display-p3 0.0039 0.0902 0.2510);fill-opacity:1;"/>
<path d="M181.695 51.3784C182.37 51.3784 182.934 51.5125 183.399 51.7806C183.864 52.0488 184.219 52.4623 184.462 53.0098L183.997 53.3674C183.787 52.8422 183.477 52.4623 183.089 52.2388C182.702 52.0041 182.215 51.8924 181.65 51.8924C181.219 51.8924 180.842 51.9594 180.543 52.1047C180.244 52.2388 180.012 52.4287 179.846 52.6522C179.691 52.8757 179.602 53.1327 179.602 53.4232C179.602 53.7696 179.713 54.049 179.934 54.2725C180.156 54.496 180.565 54.6748 181.152 54.8089L182.602 55.1217C183.322 55.2782 183.831 55.5017 184.119 55.8034C184.407 56.0939 184.562 56.4738 184.562 56.9431C184.562 57.3454 184.451 57.703 184.208 58.0159C183.964 58.3287 183.654 58.5746 183.244 58.7422C182.835 58.9098 182.359 58.9992 181.816 58.9992C181.274 58.9992 180.82 58.9321 180.411 58.7757C180.001 58.6304 179.658 58.4293 179.37 58.1611C179.093 57.8929 178.883 57.5801 178.75 57.2001L179.237 56.8202C179.337 57.1666 179.514 57.4683 179.757 57.7253C180.001 57.9712 180.3 58.1611 180.654 58.2952C181.008 58.4293 181.407 58.4852 181.839 58.4852C182.27 58.4852 182.625 58.4293 182.946 58.3064C183.267 58.1946 183.521 58.0159 183.709 57.7924C183.887 57.5689 183.986 57.2895 183.986 56.9655C183.986 56.6414 183.875 56.3844 183.654 56.1721C183.433 55.9598 183.045 55.7922 182.492 55.6804L180.986 55.3452C180.521 55.2446 180.145 55.0994 179.857 54.9318C179.569 54.7642 179.359 54.5518 179.226 54.306C179.093 54.0602 179.027 53.792 179.027 53.4791C179.027 53.0992 179.137 52.7528 179.348 52.4287C179.558 52.1047 179.868 51.8589 180.267 51.6577C180.665 51.4678 181.141 51.3672 181.684 51.3672L181.695 51.3784Z" fill="#011740" style="fill:#011740;fill:color(display-p3 0.0039 0.0902 0.2510);fill-opacity:1;"/>
<path d="M202.994 51.4883C203.503 51.4883 203.946 51.5777 204.311 51.7565C204.677 51.9352 204.964 52.1811 205.175 52.5051C205.374 52.8292 205.485 53.2091 205.485 53.6561C205.485 54.1031 205.385 54.5053 205.175 54.8182C204.964 55.1311 204.688 55.3881 204.311 55.5669C203.935 55.7457 203.503 55.8351 202.994 55.8351H201.112V58.8968H200.559V51.4995H202.994V51.4883ZM202.928 55.2987C203.57 55.2987 204.057 55.1534 204.4 54.8629C204.732 54.5724 204.898 54.1701 204.898 53.6449C204.898 53.1197 204.732 52.7174 204.4 52.4269C204.068 52.1364 203.581 51.9911 202.928 51.9911H201.112V55.2875H202.928V55.2987Z" fill="#011740" style="fill:#011740;fill:color(display-p3 0.0039 0.0902 0.2510);fill-opacity:1;"/>
<path d="M215.192 51.4883C215.923 51.4883 216.509 51.6782 216.941 52.047C217.373 52.4157 217.594 52.9298 217.594 53.589C217.594 54.2483 217.373 54.7512 216.941 55.1087C216.509 55.4663 215.923 55.6563 215.181 55.6563L215.126 55.6898H213.022V58.8968H212.469V51.4995H215.192V51.4883ZM215.181 55.1534C215.779 55.1534 216.233 55.0193 216.543 54.7512C216.853 54.483 217.019 54.0919 217.019 53.589C217.019 53.0862 216.864 52.6839 216.543 52.4157C216.233 52.1476 215.779 52.0023 215.181 52.0023H213.022V55.1534H215.181ZM215.613 55.254L217.982 58.8856H217.329L215.148 55.5669L215.613 55.254Z" fill="#011740" style="fill:#011740;fill:color(display-p3 0.0039 0.0902 0.2510);fill-opacity:1;"/>
<path d="M227.845 51.3789C228.543 51.3789 229.14 51.5353 229.65 51.8482C230.159 52.1611 230.546 52.5969 230.812 53.1668C231.089 53.7367 231.222 54.4071 231.222 55.2005C231.222 55.9939 231.089 56.6643 230.812 57.2342C230.535 57.8041 230.148 58.2399 229.65 58.5528C229.14 58.8657 228.543 59.0221 227.845 59.0221C227.148 59.0221 226.561 58.8657 226.052 58.5528C225.543 58.2399 225.155 57.8041 224.878 57.2342C224.602 56.6643 224.469 55.9939 224.469 55.2005C224.469 54.4071 224.602 53.7367 224.878 53.1668C225.155 52.5969 225.543 52.1611 226.052 51.8482C226.561 51.5353 227.159 51.3789 227.845 51.3789ZM227.845 51.8929C227.269 51.8929 226.782 52.027 226.362 52.2952C225.941 52.5634 225.62 52.9433 225.388 53.435C225.155 53.9266 225.044 54.5189 225.044 55.2005C225.044 55.8821 225.155 56.4632 225.388 56.966C225.62 57.4689 225.941 57.8376 226.362 58.1058C226.782 58.374 227.269 58.5081 227.845 58.5081C228.421 58.5081 228.919 58.374 229.34 58.1058C229.749 57.8376 230.081 57.4577 230.303 56.966C230.535 56.4744 230.646 55.8821 230.646 55.2005C230.646 54.5189 230.535 53.9378 230.303 53.435C230.07 52.9433 229.749 52.5634 229.34 52.2952C228.93 52.027 228.432 51.8929 227.845 51.8929Z" fill="#011740" style="fill:#011740;fill:color(display-p3 0.0039 0.0902 0.2510);fill-opacity:1;"/>
<path d="M240.887 51.4883C241.396 51.4883 241.839 51.5777 242.204 51.7565C242.569 51.9352 242.857 52.1811 243.067 52.5051C243.267 52.8292 243.377 53.2091 243.377 53.6561C243.377 54.1031 243.278 54.5053 243.067 54.8182C242.857 55.1311 242.58 55.3881 242.204 55.5669C241.828 55.7457 241.396 55.8351 240.887 55.8351H239.005V58.8968H238.451V51.4995H240.887V51.4883ZM240.82 55.2987C241.462 55.2987 241.949 55.1534 242.293 54.8629C242.625 54.5724 242.791 54.1701 242.791 53.6449C242.791 53.1197 242.625 52.7174 242.293 52.4269C241.96 52.1364 241.473 51.9911 240.82 51.9911H239.005V55.2875H240.82V55.2987Z" fill="#011740" style="fill:#011740;fill:color(display-p3 0.0039 0.0902 0.2510);fill-opacity:1;"/>
<path d="M250.927 51.4883V58.8856H250.373V51.4883H250.927Z" fill="#011740" style="fill:#011740;fill:color(display-p3 0.0039 0.0902 0.2510);fill-opacity:1;"/>
<path d="M258.621 58.8856V51.4883H263.636V52.0023H259.186V54.8629H262.706V55.3881H259.186V58.3716H263.824V58.8856H258.632H258.621Z" fill="#011740" style="fill:#011740;fill:color(display-p3 0.0039 0.0902 0.2510);fill-opacity:1;"/>
<path d="M273.122 51.4883C274.296 51.4883 275.192 51.8012 275.823 52.4269C276.454 53.0527 276.775 53.9578 276.775 55.1311C276.775 56.3044 276.454 57.2765 275.823 57.9246C275.192 58.5727 274.285 58.8856 273.122 58.8856H270.809V51.4883H273.122ZM273.167 58.3716C274.141 58.3716 274.893 58.0923 275.414 57.5335C275.934 56.9748 276.2 56.1703 276.2 55.1311C276.2 54.0919 275.934 53.3544 275.414 52.818C274.893 52.2817 274.141 52.0023 273.167 52.0023H271.362V58.3716H273.167Z" fill="#011740" style="fill:#011740;fill:color(display-p3 0.0039 0.0902 0.2510);fill-opacity:1;"/>
<path d="M289.408 58.8856H288.821L287.902 56.5614H284.404L283.485 58.8856H282.898L285.832 51.4883H286.485L289.419 58.8856H289.408ZM284.592 56.0474H287.692L286.131 52.0358L284.592 56.0474Z" fill="#011740" style="fill:#011740;fill:color(display-p3 0.0039 0.0902 0.2510);fill-opacity:1;"/>
<path d="M298.474 51.4883C299.647 51.4883 300.544 51.8012 301.175 52.4269C301.806 53.0527 302.127 53.9578 302.127 55.1311C302.127 56.3044 301.806 57.2765 301.175 57.9246C300.544 58.5727 299.636 58.8856 298.474 58.8856H296.16V51.4883H298.474ZM298.518 58.3716C299.492 58.3716 300.245 58.0923 300.765 57.5335C301.286 56.9748 301.551 56.1703 301.551 55.1311C301.551 54.0919 301.286 53.3544 300.765 52.818C300.245 52.2817 299.492 52.0023 298.518 52.0023H296.714V58.3716H298.518Z" fill="#011740" style="fill:#011740;fill:color(display-p3 0.0039 0.0902 0.2510);fill-opacity:1;"/>
<path d="M309.355 58.8856V51.4883H314.37V52.0023H309.92V54.8629H313.44V55.3881H309.92V58.3716H314.558V58.8856H309.367H309.355Z" fill="#011740" style="fill:#011740;fill:color(display-p3 0.0039 0.0902 0.2510);fill-opacity:1;"/>
<path d="M323.814 51.3784C324.489 51.3784 325.054 51.5125 325.519 51.7806C325.984 52.0488 326.338 52.4623 326.581 53.0098L326.116 53.3674C325.906 52.8422 325.596 52.4623 325.209 52.2388C324.821 52.0041 324.334 51.8924 323.77 51.8924C323.338 51.8924 322.961 51.9594 322.662 52.1047C322.364 52.2388 322.131 52.4287 321.965 52.6522C321.81 52.8757 321.722 53.1327 321.722 53.4232C321.722 53.7696 321.832 54.049 322.054 54.2725C322.275 54.496 322.685 54.6748 323.271 54.8089L324.722 55.1217C325.441 55.2782 325.95 55.5017 326.238 55.8034C326.526 56.0939 326.681 56.4738 326.681 56.9431C326.681 57.3454 326.57 57.703 326.327 58.0159C326.083 58.3287 325.773 58.5746 325.364 58.7422C324.954 58.9098 324.478 58.9992 323.936 58.9992C323.393 58.9992 322.939 58.9321 322.53 58.7757C322.12 58.6304 321.777 58.4293 321.489 58.1611C321.212 57.8929 321.002 57.5801 320.869 57.2001L321.356 56.8202C321.456 57.1666 321.633 57.4683 321.877 57.7253C322.12 57.9712 322.419 58.1611 322.773 58.2952C323.127 58.4293 323.526 58.4852 323.958 58.4852C324.389 58.4852 324.744 58.4293 325.065 58.3064C325.386 58.1946 325.64 58.0159 325.829 57.7924C326.006 57.5689 326.105 57.2895 326.105 56.9655C326.105 56.6414 325.995 56.3844 325.773 56.1721C325.552 55.9598 325.164 55.7922 324.611 55.6804L323.105 55.3452C322.64 55.2446 322.264 55.0994 321.976 54.9318C321.688 54.7642 321.478 54.5518 321.345 54.306C321.212 54.0602 321.146 53.792 321.146 53.4791C321.146 53.0992 321.257 52.7528 321.467 52.4287C321.677 52.1047 321.987 51.8589 322.386 51.6577C322.784 51.4678 323.26 51.3672 323.803 51.3672L323.814 51.3784Z" fill="#011740" style="fill:#011740;fill:color(display-p3 0.0039 0.0902 0.2510);fill-opacity:1;"/>
</g>
<defs>
<clipPath id="clip0_647_12359">
<rect width="327" height="59" fill="white" style="fill:white;fill-opacity:1;" transform="translate(0.5)"/>
</clipPath>
</defs>
</svg>
