<svg width="24" height="25" viewBox="0 0 24 25" fill="none" xmlns="http://www.w3.org/2000/svg">
<path d="M23.9933 12.4258C23.9652 10.1407 23.2847 7.91125 22.0319 5.99993C20.7792 4.08861 19.0064 2.57507 16.9223 1.63755C14.8381 0.700032 12.5295 0.37758 10.2683 0.70817C8.00705 1.03876 5.88736 2.00862 4.15886 3.50354C2.43036 4.99846 1.16503 6.95618 0.511895 9.14613C-0.141246 11.3361 -0.154998 13.6671 0.472258 15.8646C1.09951 18.0621 2.34166 20.0346 4.0524 21.5498C5.76314 23.065 7.87123 24.0598 10.1284 24.4171V15.9183H7.13061V12.4258H10.1284V9.77278C10.059 9.15588 10.1259 8.53128 10.3243 7.94305C10.5227 7.35483 10.8478 6.81731 11.2767 6.36846C11.7055 5.9196 12.2277 5.57035 12.8062 5.34534C13.3848 5.12033 14.0057 5.02505 14.6251 5.06623C15.5242 5.07854 16.4211 5.15871 17.3082 5.30605V8.30386H15.8093C15.5508 8.27126 15.2883 8.29716 15.0412 8.37965C14.7941 8.46213 14.5687 8.59909 14.3816 8.7804C14.1945 8.96171 14.0506 9.18274 13.9604 9.42715C13.8703 9.67157 13.8362 9.93312 13.8607 10.1925V12.4558H17.1882L16.6486 15.9483H13.8757V24.3421C16.7085 23.8941 19.2868 22.4455 21.1431 20.2592C22.9994 18.073 24.0106 15.2938 23.9933 12.4258Z" fill="#F4F4F4" style="fill:#F4F4F4;fill:color(display-p3 0.9569 0.9569 0.9569);fill-opacity:1;"/>
</svg>
