<svg width="24" height="25" viewBox="0 0 24 25" fill="none" xmlns="http://www.w3.org/2000/svg">
<path d="M12.0312 6.34277C10.8158 6.34277 9.62761 6.7032 8.61699 7.37848C7.60636 8.05375 6.81868 9.01355 6.35354 10.1365C5.8884 11.2594 5.7667 12.4951 6.00383 13.6872C6.24095 14.8793 6.82625 15.9743 7.68572 16.8338C8.54518 17.6933 9.64021 18.2786 10.8323 18.5157C12.0244 18.7528 13.2601 18.6311 14.383 18.166C15.506 17.7008 16.4658 16.9132 17.141 15.9025C17.8163 14.8919 18.1768 13.7037 18.1768 12.4883C18.1787 11.6807 18.0211 10.8807 17.713 10.1342C17.4048 9.38766 16.9522 8.7094 16.3812 8.13834C15.8101 7.56728 15.1319 7.11469 14.3854 6.80655C13.6389 6.4984 12.8388 6.3408 12.0312 6.34277ZM12.0312 16.4904C11.2397 16.4904 10.466 16.2556 9.80781 15.8159C9.14968 15.3761 8.63672 14.7511 8.33381 14.0198C8.03091 13.2885 7.95165 12.4838 8.10607 11.7075C8.26049 10.9312 8.64165 10.2181 9.20135 9.65839C9.76105 9.09869 10.4742 8.71752 11.2505 8.5631C12.0268 8.40868 12.8315 8.48794 13.5628 8.79084C14.2941 9.09375 14.9191 9.60671 15.3588 10.2648C15.7986 10.923 16.0333 11.6967 16.0333 12.4883C16.0333 13.5497 15.6117 14.5676 14.8611 15.3182C14.1106 16.0687 13.0927 16.4904 12.0312 16.4904ZM19.8705 6.08796C19.8705 6.38441 19.7826 6.67421 19.6179 6.9207C19.4532 7.1672 19.2191 7.35932 18.9452 7.47276C18.6713 7.58621 18.3699 7.6159 18.0792 7.55806C17.7884 7.50023 17.5214 7.35747 17.3117 7.14784C17.1021 6.93822 16.9593 6.67114 16.9015 6.38038C16.8437 6.08962 16.8734 5.78824 16.9868 5.51435C17.1003 5.24046 17.2924 5.00637 17.5389 4.84167C17.7854 4.67696 18.0752 4.58906 18.3716 4.58906C18.7691 4.58906 19.1504 4.74698 19.4315 5.02807C19.7126 5.30917 19.8705 5.69042 19.8705 6.08796ZM23.9325 7.58686C23.9761 5.72346 23.2811 3.91844 21.999 2.56554C20.6533 1.26702 18.8474 0.55544 16.9776 0.586982C15.0291 0.497048 9.03344 0.497048 7.08486 0.586982C5.22203 0.546645 3.4182 1.24125 2.06354 2.52057C0.781424 3.87347 0.0863535 5.6785 0.129951 7.5419C0.0400164 9.49047 0.0400164 15.4861 0.129951 17.4347C0.0863535 19.2981 0.781424 21.1031 2.06354 22.456C3.4182 23.7353 5.22203 24.4299 7.08486 24.3896C9.06342 24.5095 14.9991 24.5095 16.9776 24.3896C18.841 24.4332 20.6461 23.7381 21.999 22.456C23.2811 21.1031 23.9761 19.2981 23.9325 17.4347C24.0225 15.4861 24.0225 9.49047 23.9325 7.5419V7.58686ZM21.3844 19.5781C21.1809 20.0936 20.8737 20.5619 20.4818 20.9538C20.0898 21.3457 19.6216 21.6529 19.1061 21.8564C16.7792 22.3269 14.4004 22.4881 12.0312 22.3361C9.66711 22.4884 7.29322 22.3271 4.97141 21.8564C4.45588 21.6529 3.98764 21.3457 3.59573 20.9538C3.20382 20.5619 2.89659 20.0936 2.69308 19.5781C2.06354 17.9893 2.19844 14.242 2.19844 12.5033C2.19844 10.7645 2.06354 7.00229 2.69308 5.42844C2.89085 4.90782 3.19588 4.43461 3.58839 4.03952C3.9809 3.64443 4.4521 3.3363 4.97141 3.13512C7.29322 2.66443 9.66711 2.50315 12.0312 2.65547C14.4004 2.5034 16.7792 2.66468 19.1061 3.13512C19.6216 3.33863 20.0898 3.64586 20.4818 4.03778C20.8737 4.42969 21.1809 4.89792 21.3844 5.41345C22.0139 7.00229 21.8641 10.7495 21.8641 12.4883C21.8641 14.227 22.0139 17.9893 21.3844 19.5631V19.5781Z" fill="#F4F4F4" style="fill:#F4F4F4;fill:color(display-p3 0.9569 0.9569 0.9569);fill-opacity:1;"/>
</svg>
