<svg width="31" height="29" viewBox="0 0 31 29" fill="none" xmlns="http://www.w3.org/2000/svg">
<g filter="url(#filter0_d_696_12409)">
<path d="M23.5303 18.0416C23.7808 18.1669 23.9687 18.4487 23.9687 18.7618C23.9687 18.7931 23.9687 18.8557 23.9687 18.9183L23.2172 22.1747C23.1233 22.5191 22.8415 22.7383 22.4971 22.7383C14.4501 22.7383 7.96875 16.2569 7.96875 8.20996C7.96875 7.86554 8.18793 7.58374 8.53235 7.48981L11.7887 6.73834C11.8513 6.73834 11.9139 6.70703 11.9453 6.70703C12.2584 6.70703 12.5402 6.8949 12.6654 7.1767L14.1683 10.6835C14.1996 10.7775 14.231 10.8714 14.231 10.9653C14.231 11.2158 14.1057 11.435 13.9492 11.5602L12.0392 13.1258C13.1977 15.5681 15.139 17.5093 17.5812 18.6678L19.1468 16.7579C19.272 16.6013 19.4912 16.4761 19.7104 16.4761C19.8356 16.4761 19.9296 16.5074 20.0235 16.5387L23.5303 18.0416Z" fill="white" style="fill:white;fill-opacity:1;"/>
</g>
<defs>
<filter id="filter0_d_696_12409" x="7.96875" y="6.70703" width="18" height="18.0312" filterUnits="userSpaceOnUse" color-interpolation-filters="sRGB">
<feFlood flood-opacity="0" result="BackgroundImageFix"/>
<feColorMatrix in="SourceAlpha" type="matrix" values="0 0 0 0 0 0 0 0 0 0 0 0 0 0 0 0 0 0 127 0" result="hardAlpha"/>
<feOffset dx="1" dy="1"/>
<feGaussianBlur stdDeviation="0.5"/>
<feComposite in2="hardAlpha" operator="out"/>
<feColorMatrix type="matrix" values="0 0 0 0 0 0 0 0 0 0 0 0 0 0 0 0 0 0 0.01 0"/>
<feBlend mode="normal" in2="BackgroundImageFix" result="effect1_dropShadow_696_12409"/>
<feBlend mode="normal" in="SourceGraphic" in2="effect1_dropShadow_696_12409" result="shape"/>
</filter>
</defs>
</svg>
