<svg width="31" height="29" viewBox="0 0 31 29" fill="none" xmlns="http://www.w3.org/2000/svg">
<g filter="url(#filter0_d_696_12413)">
<path d="M20.6914 9.19531C22.168 10.6719 23.082 12.6055 23.082 14.7148C23.082 19.0039 19.4961 22.5195 15.1719 22.5195C13.8711 22.5195 12.6055 22.168 11.4453 21.5703L7.33203 22.625L8.42188 18.582C7.75391 17.4219 7.36719 16.0859 7.36719 14.6797C7.36719 10.3906 10.8828 6.875 15.1719 6.875C17.2812 6.875 19.25 7.71875 20.6914 9.19531ZM15.1719 21.1836C18.7578 21.1836 21.7461 18.2656 21.7461 14.7148C21.7461 12.957 21.0078 11.3398 19.7773 10.1094C18.5469 8.87891 16.9297 8.21094 15.207 8.21094C11.6211 8.21094 8.70312 11.1289 8.70312 14.6797C8.70312 15.9102 9.05469 17.1055 9.6875 18.1602L9.86328 18.4062L9.19531 20.7969L11.6562 20.1289L11.8672 20.2695C12.8867 20.8672 14.0117 21.1836 15.1719 21.1836ZM18.7578 16.332C18.9336 16.4375 19.0742 16.4727 19.1094 16.5781C19.1797 16.6484 19.1797 17.0352 19.0039 17.4922C18.8281 17.9492 18.0547 18.3711 17.7031 18.4062C17.0703 18.5117 16.5781 18.4766 15.3477 17.9141C13.3789 17.0703 12.1133 15.1016 12.0078 14.9961C11.9023 14.8555 11.2344 13.9414 11.2344 12.957C11.2344 12.0078 11.7266 11.5508 11.9023 11.3398C12.0781 11.1289 12.2891 11.0938 12.4297 11.0938C12.5352 11.0938 12.6758 11.0938 12.7812 11.0938C12.9219 11.0938 13.0625 11.0586 13.2383 11.4453C13.3789 11.832 13.8008 12.7812 13.8359 12.8867C13.8711 12.9922 13.9062 13.0977 13.8359 13.2383C13.4844 13.9766 13.0625 13.9414 13.2734 14.293C14.0469 15.5938 14.7852 16.0508 15.9453 16.6133C16.1211 16.7188 16.2266 16.6836 16.3672 16.5781C16.4727 16.4375 16.8594 15.9805 16.9648 15.8047C17.1055 15.5938 17.2461 15.6289 17.4219 15.6992C17.5977 15.7695 18.5469 16.2266 18.7578 16.332Z" fill="white" style="fill:white;fill-opacity:1;"/>
</g>
<defs>
<filter id="filter0_d_696_12413" x="7.33203" y="6.875" width="17.75" height="17.75" filterUnits="userSpaceOnUse" color-interpolation-filters="sRGB">
<feFlood flood-opacity="0" result="BackgroundImageFix"/>
<feColorMatrix in="SourceAlpha" type="matrix" values="0 0 0 0 0 0 0 0 0 0 0 0 0 0 0 0 0 0 127 0" result="hardAlpha"/>
<feOffset dx="1" dy="1"/>
<feGaussianBlur stdDeviation="0.5"/>
<feComposite in2="hardAlpha" operator="out"/>
<feColorMatrix type="matrix" values="0 0 0 0 0 0 0 0 0 0 0 0 0 0 0 0 0 0 0.01 0"/>
<feBlend mode="normal" in2="BackgroundImageFix" result="effect1_dropShadow_696_12413"/>
<feBlend mode="normal" in="SourceGraphic" in2="effect1_dropShadow_696_12413" result="shape"/>
</filter>
</defs>
</svg>
