<svg width="31" height="23" viewBox="0 0 31 23" fill="none" xmlns="http://www.w3.org/2000/svg">
<path d="M29.4394 4.25517C29.2723 3.61115 28.9372 3.02303 28.4684 2.55091C27.9996 2.07879 27.4138 1.73959 26.771 1.56797C22.8735 1.1083 18.9504 0.901161 15.0262 0.947848C11.102 0.901161 7.17894 1.1083 3.28148 1.56797C2.63865 1.73959 2.0529 2.07879 1.58409 2.55091C1.11527 3.02303 0.780186 3.61115 0.613077 4.25517C0.18615 6.64912 -0.0214181 9.07704 -0.00704513 11.5087C-0.0221376 13.9529 0.185427 16.3933 0.613077 18.7999C0.788844 19.4335 1.12777 20.0099 1.59602 20.4716C2.06426 20.9332 2.64543 21.2639 3.28148 21.4307C7.17894 21.8904 11.102 22.0975 15.0262 22.0508C18.9504 22.0975 22.8735 21.8904 26.771 21.4307C27.407 21.2639 27.9882 20.9332 28.4564 20.4716C28.9247 20.0099 29.2636 19.4335 29.4394 18.7999C29.867 16.3933 30.0746 13.9529 30.0595 11.5087C30.0739 9.07704 29.8663 6.64912 29.4394 4.25517ZM11.9444 15.9999V7.05511L19.8181 11.5087L11.9444 15.9811V15.9999Z" fill="#F4F4F4" style="fill:#F4F4F4;fill:color(display-p3 0.9569 0.9569 0.9569);fill-opacity:1;"/>
</svg>
